<svg width="800" height="800" viewBox="0 0 800 800" fill="none" xmlns="http://www.w3.org/2000/svg">
<path d="M750.701 762.353H101V760.172H751L750.701 762.353Z" fill="#3F3D56"/>
<path d="M21.4028 633.062C24.1357 643.911 47.4384 668.308 71.4834 691.217C34.4039 599.63 55.5332 499.396 55.5332 499.396C48.6484 538.763 143.007 736.866 143.007 736.866L121.515 749.539L114.255 759.756C41.476 726.33 21.4028 633.062 21.4028 633.062Z" fill="#E6E6E6"/>
<path d="M578.458 299.972H274.487V359.987H578.458V299.972Z" fill="#E6E6E6"/>
<path d="M578.458 205.142H274.487V265.157H578.458V205.142Z" fill="#E6E6E6"/>
<path d="M578.458 110H274.487V170.015H578.458V110Z" fill="#E6E6E6"/>
<path d="M280.967 163.534H571.978V116.48H280.967V163.534Z" fill="white"/>
<path d="M280.967 258.886H571.978V211.832H280.967V258.886Z" fill="white"/>
<path d="M280.967 353.507H571.978V306.452H280.967V353.507Z" fill="white"/>
<path d="M306.443 157.544C316.344 157.544 324.37 149.518 324.37 139.618C324.37 129.717 316.344 121.691 306.443 121.691C296.543 121.691 288.517 129.717 288.517 139.618C288.517 149.518 296.543 157.544 306.443 157.544Z" fill="#ABDEE7"/>
<path d="M526.238 132.603H349.311V136.5H526.238V132.603Z" fill="#ABDEE7"/>
<path d="M526.238 142.735H349.311V146.632H526.238V142.735Z" fill="#ABDEE7"/>
<path d="M306.443 253.466C316.344 253.466 324.37 245.44 324.37 235.539C324.37 225.639 316.344 217.613 306.443 217.613C296.543 217.613 288.517 225.639 288.517 235.539C288.517 245.44 296.543 253.466 306.443 253.466Z" fill="#CCCCCC"/>
<path d="M526.238 228.525H349.311V232.422H526.238V228.525Z" fill="#CCCCCC"/>
<path d="M526.238 238.657H349.311V242.554H526.238V238.657Z" fill="#CCCCCC"/>
<path d="M306.443 348.296C316.344 348.296 324.37 340.27 324.37 330.369C324.37 320.469 316.344 312.443 306.443 312.443C296.543 312.443 288.517 320.469 288.517 330.369C288.517 340.27 296.543 348.296 306.443 348.296Z" fill="#CCCCCC"/>
<path d="M526.238 323.355H349.311V327.252H526.238V323.355Z" fill="#CCCCCC"/>
<path d="M526.238 333.487H349.311V337.384H526.238V333.487Z" fill="#CCCCCC"/>
<path d="M275.487 390.972H577.458V448.987H275.487V390.972Z" fill="white" stroke="#E5E5E5" stroke-width="2"/>
<path d="M306.443 438.296C316.344 438.296 324.37 430.27 324.37 420.369C324.37 410.469 316.344 402.443 306.443 402.443C296.543 402.443 288.517 410.469 288.517 420.369C288.517 430.27 296.543 438.296 306.443 438.296Z" fill="#CCCCCC"/>
<path d="M526.238 413.355H349.311V417.252H526.238V413.355Z" fill="#CCCCCC"/>
<path d="M526.238 423.487H349.311V427.384H526.238V423.487Z" fill="#CCCCCC"/>
<path d="M661.146 415.401L639.407 458.438L574.406 487.989C567.465 499.72 545.407 500.618 543.803 493.032C542.003 484.521 570.588 470.823 570.588 470.823L624.957 434.049L629.714 402.392L661.146 415.401Z" fill="#A0616A"/>
<path d="M658.582 704.215L662.591 736.288L639.338 737.892L636.933 704.215H658.582Z" fill="#A0616A"/>
<path d="M655.375 731.478C657.453 729.279 659.371 726.934 661.112 724.461C664.445 719.849 667.402 743.505 667.402 743.505C667.402 743.505 670.609 753.127 669.807 757.938C669.005 762.749 650.564 762.749 647.356 761.947C644.149 761.145 628.113 761.947 628.113 761.947H604.058C583.211 752.325 604.058 745.91 604.058 745.91C610.473 745.109 632.122 725.063 632.122 725.063L636.933 716.243C640.14 715.441 643.347 727.469 643.347 727.469L655.375 731.478Z" fill="#2F2E41"/>
<path d="M718.718 704.616L722.728 736.689L699.475 738.293L697.069 704.616H718.718Z" fill="#A0616A"/>
<path d="M715.511 731.878C717.59 729.68 719.508 727.335 721.249 724.861C724.582 720.25 727.539 743.906 727.539 743.906C727.539 743.906 730.746 752.726 729.944 757.537C729.142 762.348 710.7 762.348 707.493 761.546C704.286 760.744 688.249 762.348 688.249 762.348H664.195C643.347 752.726 664.195 746.311 664.195 746.311C670.609 745.509 692.258 725.464 692.258 725.464L697.069 716.644C700.277 715.842 703.484 727.869 703.484 727.869L715.511 731.878Z" fill="#2F2E41"/>
<path d="M692.258 497.747C695.465 501.756 693.862 515.387 693.862 515.387C693.862 515.387 699.475 559.487 697.069 563.496C694.664 567.505 698.673 570.713 701.078 576.325C703.484 581.938 705.889 595.569 705.889 595.569C719.52 606.795 718.718 658.111 718.718 658.111L723.529 703.815C721.926 708.626 699.475 709.428 696.267 708.626C693.06 707.824 683.438 635.66 683.438 635.66L661.789 594.767C661.789 594.767 663.393 703.815 663.393 708.626C663.393 713.437 641.743 711.031 636.932 711.031C632.122 711.031 632.122 630.849 632.122 630.849L627.311 610.002L601.652 514.585V503.359L605.661 497.747C605.661 497.747 689.051 493.738 692.258 497.747Z" fill="#2F2E41"/>
<path d="M656.978 315.733C670.706 315.733 681.835 304.605 681.835 290.877C681.835 277.149 670.706 266.02 656.978 266.02C643.25 266.02 632.122 277.149 632.122 290.877C632.122 304.605 643.25 315.733 656.978 315.733Z" fill="#A0616A"/>
<path d="M644.55 302.503C649.588 313.723 646.605 329.393 636.532 346.603L677.425 327.36L671.01 321.747L672.614 305.71L644.55 302.503Z" fill="#A0616A"/>
<path d="M644.55 328.162C639.195 331.345 635.992 337.194 634.153 343.147C630.749 354.167 628.699 365.56 628.051 377.076L626.108 411.551L602.054 502.959C622.901 520.599 634.928 516.59 662.992 502.157C691.056 487.724 694.263 506.968 694.263 506.968C694.263 506.968 696.669 506.166 694.263 503.76C691.858 501.355 694.263 503.76 696.669 501.355C699.074 498.949 696.669 501.355 695.867 498.949C695.065 496.544 695.867 498.148 696.669 497.346C697.47 496.544 693.461 489.328 693.461 489.328L699.876 429.191L707.894 344.198C698.272 332.171 671.01 321.747 671.01 321.747L646.154 339.387C638.136 342.594 644.55 329.765 644.55 329.765V328.162Z" fill="#ABDEE7"/>
<path d="M721.124 395.113L724.331 443.223L683.438 501.756C683.438 515.387 676.222 518.594 676.222 518.594C673.489 514.232 671.077 509.676 669.006 504.963C664.997 496.143 671.411 488.927 671.411 488.927L699.475 429.592L687.448 399.924L721.124 395.113Z" fill="#A0616A"/>
<path d="M707.493 344.599C721.124 349.41 723.529 401.528 723.529 401.528C707.493 392.708 688.249 407.141 688.249 407.141C688.249 407.141 684.24 393.51 679.429 375.87C677.977 370.908 677.803 365.659 678.925 360.612C680.046 355.565 682.426 350.884 685.844 347.004C685.844 347.004 693.862 339.788 707.493 344.599Z" fill="#ABDEE7"/>
<path d="M679.83 298.494C676.666 295.962 672.349 300.564 672.349 300.564L669.817 277.781C669.817 277.781 653.996 279.679 643.87 277.148C633.744 274.616 632.162 286.324 632.162 286.324C631.64 281.596 631.534 276.832 631.845 272.085C632.478 266.389 640.705 260.693 655.261 256.896C669.817 253.099 677.412 269.553 677.412 269.553C687.538 274.616 682.994 301.025 679.83 298.494Z" fill="#2F2E41"/>
<path d="M150.379 413.118C150.379 413.118 146.188 439.462 163.551 437.067C163.551 437.067 232.406 421.5 235.999 425.093C239.591 428.685 261.925 429.908 260.76 414.763C259.591 399.566 237.196 408.328 237.196 408.328C237.196 408.328 202.469 413.118 195.284 409.525C188.1 405.933 167.742 407.13 167.742 407.13L150.379 413.118Z" fill="#A0616A"/>
<path d="M202.923 499.03L193.376 589.617C193.376 589.617 190.382 625.541 181.401 633.325C181.401 633.325 181.401 644.701 178.407 648.293L174.216 695.594C174.216 695.594 180.204 712.957 179.605 715.951C179.006 718.945 182 728.524 181.401 729.722C180.802 730.919 152.662 729.722 152.662 729.722L158.649 633.325L177.21 499.207L202.923 499.03Z" fill="#2F2E41"/>
<path d="M150.468 724.825C150.468 724.825 137.911 756.49 144.463 760.311C151.014 764.133 219.803 761.403 219.803 761.403C219.803 761.403 231.268 754.306 218.165 749.392C218.165 749.392 207.246 748.846 200.149 744.479C193.052 740.111 184.863 731.922 184.863 731.922C184.863 731.922 184.317 719.911 179.949 722.641C178.643 723.502 177.53 724.627 176.684 725.943C175.838 727.259 175.276 728.738 175.036 730.284L150.468 724.825Z" fill="#2F2E41"/>
<path d="M131.107 720.531C131.107 720.531 117.336 755.258 124.521 759.45C131.706 763.641 207.147 760.647 207.147 760.647C207.147 760.647 219.721 752.863 205.351 747.475C205.351 747.475 193.376 746.876 185.592 742.086C177.809 737.296 168.828 728.315 168.828 728.315C168.828 728.315 168.229 715.143 163.439 718.137C162.006 719.081 160.786 720.314 159.858 721.758C158.93 723.201 158.314 724.823 158.05 726.519L131.107 720.531Z" fill="#2F2E41"/>
<path d="M186.79 497.8C186.79 497.8 180.204 559.47 177.21 572.642C175.328 581.317 174.127 590.125 173.618 598.987C173.618 598.987 173.019 618.147 167.63 623.535C166.054 625.097 164.815 626.965 163.991 629.025C163.167 631.085 162.775 633.293 162.84 635.51C162.84 635.51 157.452 695.983 160.445 703.168C163.439 710.353 167.503 719.687 164.509 724.477C161.516 729.267 127.515 725.92 127.515 722.328C127.515 718.735 127.515 715.742 125.718 713.945C123.922 712.149 125.718 700.773 125.718 700.773C125.718 700.773 118.533 647.485 125.12 631.918C131.706 616.351 134.699 573.84 134.699 573.84C134.699 573.84 129.91 525.342 123.922 517.558C117.935 509.775 125.12 482.233 125.12 482.233L186.79 497.8Z" fill="#2F2E41"/>
<path d="M169.933 306.287C170.629 307.873 172.295 308.756 173.812 309.591C182.603 314.434 189.961 321.456 197.211 328.396C195.402 322.266 195.787 315.697 198.301 309.82C199.166 307.816 200.301 305.661 199.682 303.567C199.072 302.071 198.01 300.801 196.646 299.935C193.688 297.647 190.596 295.537 187.387 293.617C185.145 292.276 180.536 288.706 177.963 289.094C177.828 292.57 177.757 295.678 176.235 298.927C175.874 299.697 170.199 306.893 169.933 306.287Z" fill="#A0616A"/>
<path d="M200.561 313.987C214.119 313.987 225.109 302.996 225.109 289.438C225.109 275.88 214.119 264.89 200.561 264.89C187.003 264.89 176.013 275.88 176.013 289.438C176.013 302.996 187.003 313.987 200.561 313.987Z" fill="#A0616A"/>
<path d="M201.758 347.516C201.758 347.516 205.949 326.56 193.975 319.375C182 312.19 168.229 303.808 168.229 303.808C168.229 303.808 164.038 303.209 162.241 312.19C162.241 312.19 128.113 318.776 124.521 351.108C120.928 383.441 126.916 430.741 126.916 430.741C126.916 430.741 121.527 472.054 114.941 494.208C114.941 494.208 109.552 498.997 133.502 491.813C157.452 484.628 199.363 512.17 199.363 512.17C199.363 512.17 203.554 507.978 203.554 504.985C203.554 501.991 212.536 410.983 214.332 402.6C216.128 394.218 207.147 348.713 201.758 347.516Z" fill="#E6E6E6"/>
<path d="M194.776 291.967C196.25 291.15 197.904 290.709 199.59 290.685C201.278 290.66 202.926 290.169 204.353 289.266C206.672 287.486 206.842 284.045 208.538 281.664C210.994 278.217 215.894 277.802 220.123 277.975C222.709 278.08 225.495 278.235 227.673 276.836C229.909 275.4 230.922 272.694 231.676 270.145C232.568 267.132 233.145 263.446 230.935 261.211C229.401 259.659 226.979 259.352 225.275 257.989C224.353 257.252 212.159 254.289 200.713 251.626C195.014 250.302 189.028 251.112 183.886 253.902C178.745 256.693 174.804 261.271 172.808 266.77C170.165 274.038 167.9 280.867 168.134 282.342C169.253 289.401 175.496 295.013 175.926 302.147C176.336 300.177 177.229 298.34 178.524 296.8C179.819 295.259 181.476 294.065 183.347 293.323C183.816 293.094 184.349 293.029 184.859 293.14C185.479 293.338 185.842 293.958 186.233 294.478C187.259 295.841 190.481 297.91 192.307 296.943C193.941 296.077 192.721 293.36 194.776 291.967Z" fill="#3F3D56"/>
<path d="M206.001 421.031C205.487 421.534 205.193 422.221 205.183 422.94C205.172 423.66 205.446 424.354 205.945 424.873L223.207 442.739C223.458 442.999 223.759 443.206 224.09 443.349C224.422 443.492 224.779 443.567 225.14 443.57C225.502 443.574 225.86 443.505 226.195 443.369C226.529 443.233 226.833 443.031 227.089 442.777L279.763 390.331C280.051 390.044 280.271 389.697 280.407 389.314C280.544 388.932 280.593 388.524 280.551 388.12C280.509 387.716 280.378 387.326 280.166 386.98C279.954 386.633 279.668 386.338 279.328 386.117L258.615 372.626C258.097 372.285 257.478 372.132 256.861 372.193C256.244 372.254 255.666 372.524 255.225 372.96L206.001 421.031Z" fill="#3F3D56"/>
<path d="M280.124 386.913C280.02 387.074 279.899 387.223 279.763 387.358L227.213 440.795C226.957 441.05 226.653 441.251 226.318 441.388C225.984 441.524 225.625 441.592 225.264 441.589C224.903 441.585 224.546 441.51 224.214 441.367C223.882 441.225 223.582 441.017 223.331 440.757L205.697 422.148C205.577 422.023 205.469 421.887 205.375 421.742C205.081 422.246 204.977 422.839 205.081 423.413C205.186 423.987 205.492 424.505 205.945 424.873L223.207 442.739C223.458 442.999 223.758 443.206 224.09 443.349C224.422 443.492 224.779 443.567 225.14 443.57C225.501 443.574 225.86 443.505 226.194 443.369C226.529 443.233 226.833 443.031 227.089 442.777L279.763 390.331C280.206 389.889 280.484 389.308 280.55 388.686C280.616 388.064 280.465 387.438 280.124 386.913H280.124Z" fill="#6C63FF"/>
<path d="M275.247 387.56L273.104 386.193C273.329 386.595 273.412 387.062 273.339 387.518C273.265 387.973 273.04 388.391 272.699 388.701C272.358 389.012 271.922 389.199 271.462 389.23C271.002 389.262 270.544 389.136 270.164 388.875L256.293 379.338C255.978 379.122 255.73 378.821 255.577 378.471C255.424 378.12 255.373 377.734 255.429 377.355C255.486 376.977 255.647 376.622 255.895 376.331C256.143 376.04 256.468 375.825 256.833 375.709L255.729 375.005C255.585 374.914 255.415 374.874 255.246 374.893C255.077 374.912 254.92 374.989 254.8 375.11L208.137 420.967C208.068 421.037 208.013 421.121 207.976 421.213C207.939 421.305 207.921 421.403 207.923 421.502C207.925 421.601 207.946 421.699 207.986 421.79C208.026 421.88 208.084 421.962 208.156 422.03L225.103 438.543C225.244 438.675 225.43 438.748 225.623 438.745C225.816 438.742 226.001 438.665 226.137 438.528L275.372 388.713C275.451 388.634 275.511 388.539 275.548 388.434C275.585 388.329 275.598 388.217 275.586 388.106C275.574 387.996 275.538 387.889 275.479 387.794C275.42 387.7 275.341 387.62 275.247 387.56V387.56Z" fill="white"/>
<path d="M221.391 410.841L235.706 424.338L269.754 390.698L252.474 379.451L221.391 410.841Z" fill="#E6E6E6"/>
<path d="M268.431 399C268.525 399.09 268.651 399.14 268.781 399.14C268.912 399.14 269.037 399.09 269.132 399L272.109 396.023C272.202 395.93 272.254 395.804 272.254 395.672C272.254 395.541 272.202 395.415 272.109 395.322C272.015 395.232 271.889 395.182 271.759 395.182C271.628 395.182 271.503 395.232 271.408 395.322L268.431 398.3C268.338 398.393 268.286 398.518 268.286 398.65C268.286 398.781 268.338 398.907 268.431 399V399Z" fill="#3F3D56"/>
<path d="M263.415 404.016C263.508 404.109 263.634 404.161 263.766 404.161C263.897 404.161 264.023 404.109 264.116 404.016L267.094 401.038C267.186 400.945 267.238 400.82 267.237 400.688C267.237 400.557 267.185 400.432 267.092 400.339C267 400.246 266.874 400.194 266.743 400.194C266.612 400.194 266.486 400.245 266.393 400.338L263.415 403.315C263.323 403.408 263.271 403.534 263.271 403.666C263.271 403.797 263.323 403.923 263.415 404.016V404.016Z" fill="#3F3D56"/>
<path d="M221.722 425.77C223.569 425.77 225.066 424.273 225.066 422.426C225.066 420.579 223.569 419.082 221.722 419.082C219.875 419.082 218.378 420.579 218.378 422.426C218.378 424.273 219.875 425.77 221.722 425.77Z" fill="#6C63FF"/>
<path d="M132.903 403.798C132.903 403.798 128.712 430.142 146.076 427.747C146.076 427.747 214.931 412.18 218.523 415.772C222.116 419.365 244.45 420.588 243.284 405.442C242.115 390.246 219.721 399.008 219.721 399.008C219.721 399.008 184.994 403.798 177.809 400.205C170.624 396.613 150.267 397.81 150.267 397.81L132.903 403.798Z" fill="#A0616A"/>
<path d="M157.452 320.573C157.452 320.573 130.508 323.566 130.508 362.484V412.18L163.439 398.409C163.439 398.409 177.21 366.077 176.013 357.096C174.815 348.115 175.414 321.77 157.452 320.573Z" fill="#E6E6E6"/>
</svg>
