<svg width="800" height="800" viewBox="0 0 800 800" fill="none" xmlns="http://www.w3.org/2000/svg">
<path d="M198.17 712.302C198.03 728.368 196.854 744.409 194.65 760.323C194.573 760.882 194.489 761.441 194.411 762L44.06 761.159C43.6185 760.604 43.184 760.042 42.763 759.474C41.3593 757.593 40.0436 755.658 38.836 753.657C33.0311 744.015 30.3736 732.726 33.0367 724.937L33.0844 724.816C33.6593 723.111 34.5651 721.536 35.7499 720.181C41.8217 713.342 54.0983 714.482 65.239 720.003C55.2465 709.057 47.2899 695.245 46.6853 682.916C46.0925 670.891 52.376 662.301 59.1912 655C59.4149 654.759 59.6384 654.524 59.862 654.289C59.9706 654.169 60.0856 654.055 60.1938 653.934C65.5111 648.371 71.7102 642.886 80.6829 643.55C90.5236 644.279 101.434 652.527 109.084 662.139C116.734 671.744 121.818 682.656 126.97 693.305C132.13 703.947 137.712 714.862 145.991 723.958C134.777 709.764 125.736 693.615 122.397 677.908C119.057 662.202 121.996 647.116 131.99 639.719C135.024 637.543 138.535 636.125 142.229 635.585C142.66 635.513 143.098 635.455 143.543 635.404C152.794 634.35 163.84 637.552 173.239 645.206C183.589 653.634 190.765 666.127 194.335 677.987C197.905 689.847 198.286 701.265 198.17 712.302Z" fill="#F2F2F2"/>
<path d="M99.8018 761.471L96.9268 761.455C96.0139 760.884 95.0967 760.319 94.1752 759.762C93.6048 759.401 93.0277 759.054 92.4503 758.701C82.9139 752.872 73.3179 747.282 63.6622 741.929C54.0153 736.571 44.3198 731.461 34.576 726.597C34.3177 726.485 34.107 726.285 33.9805 726.033C33.8539 725.781 33.8196 725.493 33.8833 725.218C33.8938 725.182 33.91 725.148 33.9313 725.118C34.0672 724.862 34.3709 724.756 34.8143 724.974C36.0094 725.574 37.2115 726.174 38.4066 726.787C48.1771 731.734 57.9057 736.928 67.5923 742.368C77.2723 747.807 86.8971 753.485 96.4667 759.404C96.6679 759.526 96.8694 759.655 97.0706 759.778C97.9832 760.342 98.8892 760.907 99.8018 761.471Z" fill="white"/>
<path d="M136.871 761.678L135.094 761.668C134.693 761.107 134.298 760.545 133.897 759.984C124.477 746.763 115.058 733.543 105.641 720.323C90.2197 698.679 74.8031 677.036 59.3911 655.392C59.2998 655.276 59.2318 655.142 59.1911 655C59.0593 654.521 59.411 654.24 59.8619 654.289C60.052 654.317 60.2341 654.384 60.396 654.487C60.558 654.59 60.6962 654.727 60.8012 654.888C69.4472 667.025 78.091 679.159 86.7326 691.287C102.074 712.823 117.412 734.356 132.749 755.887C133.724 757.253 134.7 758.627 135.675 759.994C136.076 760.555 136.477 761.117 136.871 761.678Z" fill="white"/>
<path d="M176.478 751.347C176.387 754.345 176.189 757.296 175.93 760.219C175.879 760.778 175.829 761.337 175.779 761.896L173.914 761.885C173.971 761.326 174.028 760.767 174.078 760.208C174.472 755.985 174.752 751.715 174.79 747.328C174.839 735.166 173.655 723.03 171.255 711.107C168.703 698.27 165.04 685.679 160.306 673.477C155.338 660.608 149.348 648.158 142.393 636.246C142.262 636.052 142.204 635.818 142.229 635.585C142.306 635.053 143.013 634.895 143.543 635.404C143.647 635.503 143.737 635.617 143.81 635.742C144.67 637.223 145.515 638.708 146.344 640.197C153.042 652.175 158.775 664.669 163.489 677.558C167.979 689.8 171.394 702.41 173.696 715.245C175.852 727.152 176.784 739.249 176.478 751.347V751.347Z" fill="white"/>
<path d="M42.4282 761.878H418.071C418.402 761.878 418.72 761.747 418.954 761.512C419.188 761.278 419.319 760.961 419.319 760.629C419.319 760.298 419.188 759.98 418.954 759.746C418.72 759.512 418.402 759.38 418.071 759.38H42.4282C42.0972 759.38 41.7797 759.512 41.5457 759.746C41.3116 759.98 41.1802 760.298 41.1802 760.629C41.1802 760.961 41.3116 761.278 41.5457 761.512C41.7797 761.747 42.0972 761.878 42.4282 761.878V761.878Z" fill="#3F3D56"/>
<path d="M749.651 414H248.559C243.639 413.994 238.921 412.036 235.442 408.554C231.963 405.072 230.006 400.352 230 395.428V132.139C230.006 127.215 231.963 122.494 235.442 119.012C238.921 115.531 243.639 113.572 248.559 113.566H749.651C754.572 113.572 759.289 115.531 762.768 119.012C766.247 122.494 768.205 127.215 768.21 132.139V395.428C768.205 400.352 766.247 405.072 762.768 408.554C759.289 412.036 754.572 413.994 749.651 414V414ZM248.559 115.751C244.217 115.756 240.055 117.484 236.985 120.557C233.915 123.629 232.188 127.794 232.183 132.139V395.428C232.188 399.772 233.915 403.938 236.985 407.01C240.055 410.082 244.217 411.81 248.559 411.815H749.651C753.993 411.81 758.155 410.082 761.225 407.01C764.295 403.938 766.022 399.772 766.027 395.428V132.139C766.022 127.794 764.295 123.629 761.225 120.557C758.155 117.484 753.993 115.756 749.651 115.751H248.559Z" fill="#3F3D56"/>
<path d="M418.865 344.081H290.044C285.123 344.075 280.406 342.117 276.927 338.635C273.447 335.153 271.49 330.433 271.485 325.509V196.595C271.49 191.671 273.447 186.951 276.927 183.469C280.406 179.987 285.123 178.029 290.044 178.023H418.865C423.785 178.029 428.502 179.987 431.982 183.469C435.461 186.951 437.418 191.671 437.424 196.595V325.509C437.418 330.433 435.461 335.153 431.982 338.635C428.502 342.117 423.785 344.075 418.865 344.081V344.081ZM290.044 180.208C285.702 180.213 281.54 181.941 278.47 185.013C275.4 188.085 273.673 192.251 273.668 196.595V325.509C273.673 329.853 275.4 334.019 278.47 337.091C281.54 340.163 285.702 341.891 290.044 341.896H418.865C423.206 341.891 427.368 340.163 430.438 337.091C433.508 334.019 435.235 329.853 435.24 325.509V196.595C435.235 192.251 433.508 188.085 430.438 185.013C427.368 181.941 423.206 180.213 418.865 180.208H290.044Z" fill="#CCCCCC"/>
<path d="M736.538 247.942H488.721C486.405 247.942 484.183 247.021 482.545 245.382C480.907 243.743 479.987 241.52 479.987 239.202C479.987 236.884 480.907 234.661 482.545 233.022C484.183 231.383 486.405 230.462 488.721 230.462H736.538C738.854 230.462 741.075 231.383 742.713 233.022C744.351 234.661 745.271 236.884 745.271 239.202C745.271 241.52 744.351 243.743 742.713 245.382C741.075 247.021 738.854 247.942 736.538 247.942Z" fill="#CCCCCC"/>
<path d="M610.992 210.798H488.721C486.405 210.798 484.183 209.877 482.545 208.238C480.907 206.599 479.987 204.376 479.987 202.058C479.987 199.74 480.907 197.517 482.545 195.878C484.183 194.239 486.405 193.318 488.721 193.318H610.992C613.308 193.318 615.53 194.239 617.167 195.878C618.805 197.517 619.725 199.74 619.725 202.058C619.725 204.376 618.805 206.599 617.167 208.238C615.53 209.877 613.308 210.798 610.992 210.798Z" fill="#CCCCCC"/>
<path d="M736.538 321.139H488.721C486.405 321.139 484.183 320.218 482.545 318.579C480.907 316.94 479.987 314.717 479.987 312.399C479.987 310.081 480.907 307.858 482.545 306.219C484.183 304.58 486.405 303.659 488.721 303.659H736.538C738.854 303.659 741.075 304.58 742.713 306.219C744.351 307.858 745.271 310.081 745.271 312.399C745.271 314.717 744.351 316.94 742.713 318.579C741.075 320.218 738.854 321.139 736.538 321.139Z" fill="#CCCCCC"/>
<path d="M610.992 283.994H488.721C486.405 283.994 484.183 283.073 482.545 281.434C480.907 279.795 479.987 277.572 479.987 275.254C479.987 272.936 480.907 270.713 482.545 269.074C484.183 267.435 486.405 266.514 488.721 266.514H610.992C613.308 266.514 615.53 267.435 617.167 269.074C618.805 270.713 619.725 272.936 619.725 275.254C619.725 277.572 618.805 279.795 617.167 281.434C615.53 283.073 613.308 283.994 610.992 283.994Z" fill="#CCCCCC"/>
<path d="M431.49 338.674C431.345 338.674 431.202 338.646 431.068 338.59C430.935 338.534 430.814 338.452 430.712 338.349L278.292 183.764C278.191 183.661 278.111 183.54 278.058 183.408C278.004 183.275 277.976 183.132 277.977 182.989C277.978 182.846 278.007 182.704 278.063 182.572C278.119 182.439 278.2 182.32 278.302 182.219C278.404 182.118 278.525 182.038 278.658 181.984C278.791 181.93 278.933 181.903 279.076 181.904C279.22 181.905 279.361 181.934 279.493 181.99C279.625 182.046 279.745 182.127 279.846 182.229L432.267 336.814C432.418 336.968 432.521 337.163 432.561 337.374C432.602 337.586 432.58 337.804 432.497 338.003C432.414 338.202 432.274 338.372 432.095 338.491C431.915 338.61 431.705 338.674 431.49 338.674Z" fill="#CCCCCC"/>
<path d="M277.419 338.674C277.204 338.674 276.993 338.61 276.814 338.491C276.635 338.372 276.495 338.202 276.412 338.003C276.329 337.804 276.306 337.585 276.347 337.374C276.388 337.162 276.491 336.968 276.642 336.814L429.058 182.229C429.158 182.127 429.278 182.045 429.41 181.989C429.542 181.933 429.684 181.904 429.828 181.903C429.971 181.902 430.113 181.929 430.246 181.983C430.379 182.037 430.5 182.117 430.603 182.217C430.705 182.318 430.786 182.438 430.842 182.571C430.898 182.703 430.927 182.845 430.928 182.988C430.928 183.132 430.901 183.274 430.847 183.407C430.793 183.54 430.713 183.661 430.612 183.763L278.196 338.349C278.095 338.452 277.974 338.534 277.84 338.59C277.707 338.646 277.564 338.674 277.419 338.674V338.674Z" fill="#CCCCCC"/>
<path d="M728.909 381.772H659.04C654.552 381.772 650.248 379.988 647.074 376.812C643.901 373.636 642.118 369.329 642.118 364.838C642.118 360.347 643.901 356.04 647.074 352.864C650.248 349.689 654.552 347.905 659.04 347.905H728.909C733.396 347.905 737.7 349.689 740.874 352.864C744.047 356.04 745.83 360.347 745.83 364.838C745.83 369.329 744.047 373.636 740.874 376.812C737.7 379.988 733.396 381.772 728.909 381.772V381.772Z" fill="#ABDEE7"/>
<path d="M242.073 741.54L259.565 741.539L267.886 674.023L242.07 674.025L242.073 741.54Z" fill="#A0616A"/>
<path d="M293.298 757.792L238.325 757.794L238.324 736.539L272.058 736.538C277.691 736.537 283.093 738.776 287.077 742.762C291.06 746.748 293.298 752.154 293.298 757.792V757.792V757.792Z" fill="#2F2E41"/>
<path d="M115.158 721.712L131.067 728.985L166.67 671.032L143.188 660.3L115.158 721.712Z" fill="#A0616A"/>
<path d="M155.004 757.794L105 734.938L113.824 715.605L144.509 729.63C149.633 731.972 153.617 736.255 155.585 741.537C157.554 746.818 157.345 752.666 155.004 757.794L155.004 757.794Z" fill="#2F2E41"/>
<path d="M166.095 513.894C164.42 512.632 163.041 511.017 162.056 509.164C161.071 507.311 160.504 505.264 160.395 503.168C160.286 501.072 160.638 498.978 161.425 497.032C162.212 495.087 163.416 493.338 164.952 491.909L144.391 445.221L170.512 449.651L186.033 493.307C188.262 496.048 189.408 499.513 189.255 503.043C189.101 506.574 187.659 509.925 185.202 512.463C182.744 515 179.442 516.547 175.92 516.811C172.399 517.075 168.903 516.037 166.095 513.894V513.894Z" fill="#A0616A"/>
<path d="M236.809 718.043L220.027 571.379C219.892 570.199 219.341 569.105 218.473 568.295C217.606 567.484 216.478 567.01 215.292 566.956C214.106 566.902 212.94 567.273 212.003 568.002C211.065 568.731 210.418 569.77 210.177 570.933L201.858 611.044C201.74 611.611 201.546 612.16 201.281 612.675L152.583 707.434C151.866 708.828 150.664 709.912 149.203 710.481C147.743 711.051 146.125 711.066 144.654 710.524L127.721 704.28C126.922 703.986 126.19 703.535 125.567 702.955C124.943 702.375 124.442 701.677 124.091 700.901C123.74 700.124 123.547 699.286 123.523 698.435C123.498 697.583 123.644 696.736 123.95 695.941L163.592 593.067C163.802 592.523 163.915 591.946 163.926 591.363L165.951 483.946C165.981 482.371 166.588 480.862 167.656 479.706C168.725 478.55 170.18 477.826 171.747 477.673L276.947 467.402C277.877 467.311 278.816 467.425 279.699 467.735C280.581 468.045 281.384 468.544 282.054 469.198C282.723 469.851 283.242 470.643 283.573 471.517C283.905 472.392 284.042 473.329 283.974 474.262L266.301 717.778C266.178 719.395 265.45 720.907 264.264 722.011C263.077 723.115 261.518 723.732 259.897 723.737H243.188C241.611 723.738 240.09 723.158 238.913 722.107C237.737 721.057 236.988 719.611 236.809 718.043V718.043Z" fill="#2F2E41"/>
<path d="M234.867 283.856C254.22 283.856 269.909 268.156 269.909 248.789C269.909 229.422 254.22 213.722 234.867 213.722C215.514 213.722 199.825 229.422 199.825 248.789C199.825 268.156 215.514 283.856 234.867 283.856Z" fill="#A0616A"/>
<path d="M265.235 303.014C264.276 302.555 263.324 302.114 262.378 301.69H262.378C250.872 296.51 238.193 294.494 225.649 295.849C213.105 297.205 201.148 301.883 191.012 309.402C172.349 323.313 163.353 344.257 166.332 366.864C172.61 414.512 165.422 479.148 164.676 485.585C222.281 512.093 272.82 478.766 277.305 475.669L265.235 303.014Z" fill="#ABDEE7"/>
<path d="M163.105 484.972C162.056 484.805 161.064 484.379 160.22 483.733C159.376 483.087 158.705 482.241 158.269 481.271L128.864 416.073C127.763 413.634 127.276 410.961 127.448 408.29C127.619 405.618 128.444 403.03 129.848 400.752L165.958 342.118C167.095 340.006 168.844 338.289 170.976 337.192C173.107 336.095 175.521 335.671 177.898 335.975C180.276 336.279 182.506 337.297 184.293 338.895C186.081 340.492 187.343 342.595 187.912 344.925C188.558 347.579 188.271 350.375 187.099 352.843L160.388 408.977L177.944 468.44C178.254 469.503 178.286 470.628 178.037 471.707C177.787 472.786 177.265 473.782 176.519 474.601L168.854 482.97C168.254 483.626 167.524 484.151 166.711 484.51C165.897 484.869 165.018 485.054 164.129 485.054C163.786 485.053 163.444 485.026 163.105 484.972V484.972Z" fill="#ABDEE7"/>
<path opacity="0.2" d="M244.961 471.347L239.525 362.551L240.935 362.367L265.372 477.449H251.373C249.725 477.451 248.14 476.818 246.947 475.681C245.753 474.545 245.042 472.993 244.961 471.347V471.347Z" fill="black"/>
<path d="M264.326 506.061C262.949 504.478 261.935 502.612 261.356 500.595C260.777 498.578 260.647 496.458 260.975 494.385C261.304 492.312 262.082 490.336 263.256 488.597C264.43 486.857 265.971 485.396 267.77 484.317L257.343 434.375L281.976 444.136L288.101 490.066C289.712 493.21 290.115 496.837 289.232 500.259C288.35 503.68 286.244 506.659 283.313 508.631C280.383 510.603 276.831 511.43 273.332 510.956C269.832 510.483 266.628 508.741 264.326 506.061V506.061Z" fill="#A0616A"/>
<path d="M259.405 472.119L238.818 334.78L238.799 334.65L242.778 316.332C243.775 311.743 246.409 307.674 250.187 304.888C253.965 302.102 258.627 300.788 263.303 301.194C267.978 301.599 272.346 303.695 275.589 307.09C278.832 310.485 280.727 314.945 280.921 319.638L287.099 469.241C287.161 470.865 286.607 472.453 285.549 473.686C284.491 474.92 283.007 475.707 281.393 475.892L266.463 477.553C266.222 477.579 265.98 477.593 265.739 477.593C264.202 477.594 262.716 477.041 261.553 476.036C260.39 475.031 259.628 473.641 259.405 472.119Z" fill="#ABDEE7"/>
<path d="M220.464 280.636C215.698 280.596 211.04 279.205 207.031 276.626C203.022 274.046 199.824 270.383 197.808 266.061V266.061C194.56 259.185 192.755 253.707 192.444 249.779C191.606 239.224 197.565 222.638 205.457 213.56C214.115 203.6 227.819 202.211 241.072 200.868C244.693 200.5 248.437 200.121 251.981 199.569C255.022 199.097 258.806 198.508 262.023 199.703C262.953 200.044 263.803 200.571 264.522 201.252C265.241 201.933 265.814 202.753 266.206 203.663C266.332 203.983 266.523 204.273 266.766 204.516C267.008 204.76 267.298 204.951 267.617 205.078C267.893 205.183 268.188 205.231 268.482 205.217C268.777 205.203 269.066 205.127 269.331 204.996C269.869 204.722 270.464 204.579 271.067 204.579C271.671 204.579 272.266 204.722 272.804 204.995C273.279 205.235 273.691 205.583 274.006 206.012C274.321 206.441 274.53 206.939 274.616 207.464C274.672 207.825 274.784 208.174 274.947 208.501C275.225 209.008 275.607 209.451 276.068 209.8C276.529 210.149 277.058 210.396 277.622 210.526C278.482 210.718 279.242 211.218 279.759 211.932C280.277 212.645 280.516 213.524 280.431 214.401C280.218 216.203 280.127 218.146 280.039 220.027C279.708 227.101 279.367 234.415 272.26 234.297C270.443 234.222 268.643 233.904 266.91 233.352C264.335 232.637 262.302 232.068 259.563 233.778C255.351 236.405 254.664 241.896 254.057 246.741L253.951 247.588C253.242 253.13 250.316 259.799 244.399 260.357C242.52 260.418 240.649 260.093 238.901 259.403C237.103 258.606 235.107 258.367 233.172 258.715C229.922 259.643 228.358 263.526 228.492 266.884C228.579 268.259 228.755 269.626 229.018 270.978C229.497 273.119 229.65 275.321 229.473 277.508C229.304 278.838 227.777 279.715 224.667 280.266C223.28 280.513 221.873 280.636 220.464 280.636Z" fill="#2F2E41"/>
</svg>
