<svg width="800" height="800" viewBox="0 0 800 800" fill="none" xmlns="http://www.w3.org/2000/svg">
<path d="M478.052 401.231H44.1918C40.1641 401.226 36.3026 399.285 33.4546 395.835C30.6065 392.384 29.0045 387.706 29 382.826V128.405C29.0045 123.525 30.6065 118.847 33.4546 115.397C36.3026 111.946 40.1641 110.005 44.1918 110H478.052C482.08 110.005 485.941 111.946 488.789 115.397C491.637 118.847 493.239 123.525 493.244 128.405V382.826C493.239 387.706 491.637 392.384 488.789 395.835C485.941 399.285 482.08 401.226 478.052 401.231V401.231ZM44.1918 112.165C40.6379 112.17 37.2308 113.883 34.7178 116.927C32.2048 119.972 30.7913 124.099 30.7873 128.405V382.826C30.7913 387.132 32.2048 391.26 34.7178 394.304C37.2308 397.349 40.6379 399.061 44.1918 399.066H478.052C481.606 399.061 485.013 397.349 487.526 394.304C490.039 391.26 491.452 387.132 491.456 382.826V128.405C491.452 124.099 490.039 119.972 487.526 116.927C485.013 113.883 481.606 112.17 478.052 112.165H44.1918Z" fill="#3F3D56"/>
<path d="M112.332 173.335C116.773 173.335 120.374 168.972 120.374 163.591C120.374 158.21 116.773 153.847 112.332 153.847C107.89 153.847 104.289 158.21 104.289 163.591C104.289 168.972 107.89 173.335 112.332 173.335Z" fill="#CCCCCC"/>
<path d="M112.332 210.145C116.773 210.145 120.374 205.782 120.374 200.401C120.374 195.019 116.773 190.657 112.332 190.657C107.89 190.657 104.289 195.019 104.289 200.401C104.289 205.782 107.89 210.145 112.332 210.145Z" fill="#CCCCCC"/>
<path d="M112.332 246.955C116.773 246.955 120.374 242.592 120.374 237.211C120.374 231.829 116.773 227.467 112.332 227.467C107.89 227.467 104.289 231.829 104.289 237.211C104.289 242.592 107.89 246.955 112.332 246.955Z" fill="#CCCCCC"/>
<path d="M112.332 283.764C116.773 283.764 120.374 279.402 120.374 274.021C120.374 268.639 116.773 264.277 112.332 264.277C107.89 264.277 104.289 268.639 104.289 274.021C104.289 279.402 107.89 283.764 112.332 283.764Z" fill="#CCCCCC"/>
<path d="M247.717 357.384C252.159 357.384 255.76 353.022 255.76 347.64C255.76 342.259 252.159 337.897 247.717 337.897C243.275 337.897 239.675 342.259 239.675 347.64C239.675 353.022 243.275 357.384 247.717 357.384Z" fill="#CCCCCC"/>
<path d="M189.631 357.384C194.073 357.384 197.674 353.022 197.674 347.64C197.674 342.259 194.073 337.897 189.631 337.897C185.189 337.897 181.588 342.259 181.588 347.64C181.588 353.022 185.189 357.384 189.631 357.384Z" fill="#CCCCCC"/>
<path d="M367.464 357.384C371.906 357.384 375.507 353.022 375.507 347.64C375.507 342.259 371.906 337.897 367.464 337.897C363.022 337.897 359.422 342.259 359.422 347.64C359.422 353.022 363.022 357.384 367.464 357.384Z" fill="#CCCCCC"/>
<path d="M306.697 357.384C311.139 357.384 314.74 353.022 314.74 347.64C314.74 342.259 311.139 337.897 306.697 337.897C302.255 337.897 298.655 342.259 298.655 347.64C298.655 353.022 302.255 357.384 306.697 357.384Z" fill="#CCCCCC"/>
<path d="M417.061 164.674H152.545C152.308 164.674 152.081 164.559 151.913 164.356C151.746 164.153 151.651 163.878 151.651 163.591C151.651 163.304 151.746 163.028 151.913 162.825C152.081 162.622 152.308 162.508 152.545 162.508H417.061C417.298 162.508 417.526 162.622 417.693 162.825C417.861 163.028 417.955 163.304 417.955 163.591C417.955 163.878 417.861 164.153 417.693 164.356C417.526 164.559 417.298 164.674 417.061 164.674Z" fill="#CCCCCC"/>
<path d="M417.061 201.483H152.545C152.308 201.483 152.081 201.369 151.913 201.166C151.746 200.963 151.651 200.688 151.651 200.401C151.651 200.114 151.746 199.838 151.913 199.635C152.081 199.432 152.308 199.318 152.545 199.318H417.061C417.298 199.318 417.526 199.432 417.693 199.635C417.861 199.838 417.955 200.114 417.955 200.401C417.955 200.688 417.861 200.963 417.693 201.166C417.526 201.369 417.298 201.483 417.061 201.483Z" fill="#CCCCCC"/>
<path d="M417.061 238.293H152.545C152.308 238.293 152.081 238.179 151.913 237.976C151.746 237.773 151.651 237.498 151.651 237.211C151.651 236.924 151.746 236.648 151.913 236.445C152.081 236.242 152.308 236.128 152.545 236.128H417.061C417.298 236.128 417.526 236.242 417.693 236.445C417.861 236.648 417.955 236.924 417.955 237.211C417.955 237.498 417.861 237.773 417.693 237.976C417.526 238.179 417.298 238.293 417.061 238.293Z" fill="#CCCCCC"/>
<path d="M417.061 275.103H152.545C152.308 275.103 152.081 274.989 151.913 274.786C151.746 274.583 151.651 274.308 151.651 274.021C151.651 273.734 151.746 273.458 151.913 273.255C152.081 273.052 152.308 272.938 152.545 272.938H417.061C417.298 272.938 417.526 273.052 417.693 273.255C417.861 273.458 417.955 273.734 417.955 274.021C417.955 274.308 417.861 274.583 417.693 274.786C417.526 274.989 417.298 275.103 417.061 275.103Z" fill="#CCCCCC"/>
<path d="M202.589 311.913H176.673C175.489 311.912 174.353 311.341 173.515 310.326C172.678 309.311 172.206 307.935 172.205 306.5V277.269C172.206 275.833 172.678 274.457 173.515 273.443C174.353 272.428 175.489 271.857 176.673 271.855H202.589C203.773 271.857 204.909 272.428 205.747 273.443C206.584 274.457 207.055 275.833 207.057 277.269V306.5C207.055 307.935 206.584 309.311 205.747 310.326C204.909 311.341 203.773 311.912 202.589 311.913V311.913Z" fill="#ABDEE7"/>
<path d="M260.675 311.913H234.76C233.575 311.912 232.439 311.341 231.602 310.326C230.764 309.311 230.293 307.935 230.291 306.5V240.459C230.293 239.024 230.764 237.648 231.602 236.633C232.439 235.618 233.575 235.047 234.76 235.045H260.675C261.86 235.047 262.995 235.618 263.833 236.633C264.671 237.648 265.142 239.024 265.143 240.459V306.5C265.142 307.935 264.671 309.311 263.833 310.326C262.995 311.341 261.86 311.912 260.675 311.913V311.913Z" fill="#ABDEE7"/>
<path d="M319.655 311.913H293.74C292.555 311.912 291.419 311.341 290.582 310.326C289.744 309.311 289.273 307.935 289.271 306.5V203.649C289.273 202.214 289.744 200.838 290.582 199.823C291.419 198.808 292.555 198.237 293.74 198.236H319.655C320.84 198.237 321.975 198.808 322.813 199.823C323.651 200.838 324.122 202.214 324.123 203.649V306.5C324.122 307.935 323.651 309.311 322.813 310.326C321.975 311.341 320.84 311.912 319.655 311.913V311.913Z" fill="#ABDEE7"/>
<path d="M380.422 311.913H354.507C353.322 311.912 352.186 311.341 351.349 310.326C350.511 309.311 350.04 307.935 350.038 306.5V167.921C350.04 166.486 350.511 165.11 351.349 164.096C352.186 163.081 353.322 162.51 354.507 162.508H380.422C381.607 162.51 382.742 163.081 383.58 164.096C384.418 165.11 384.889 166.486 384.89 167.921V306.5C384.889 307.935 384.418 309.311 383.58 310.326C382.742 311.341 381.607 311.912 380.422 311.913V311.913Z" fill="#ABDEE7"/>
<path d="M417.061 311.913H152.545C152.308 311.913 152.081 311.799 151.913 311.596C151.746 311.393 151.651 311.118 151.651 310.831C151.651 310.543 151.746 310.268 151.913 310.065C152.081 309.862 152.308 309.748 152.545 309.748H417.061C417.298 309.748 417.526 309.862 417.693 310.065C417.861 310.268 417.955 310.543 417.955 310.831C417.955 311.118 417.861 311.393 417.693 311.596C417.526 311.799 417.298 311.913 417.061 311.913Z" fill="#3F3D56"/>
<path d="M588.227 753.65C578.243 743.43 572.179 727.285 573.769 711.567C575.36 695.85 585.21 681.4 597.987 678.063C610.764 674.725 625.329 683.964 629.21 699.085C631.345 669.932 633.806 639.558 646.6 614.731C658.184 592.252 678.249 576.167 699.994 573.289C721.739 570.411 744.634 581.28 758.195 602.073C771.757 622.866 775.077 653.095 765.579 676.968C758.582 694.554 745.691 707.641 732.185 718.289C688.54 752.405 636.195 766.279 584.779 757.357L588.227 753.65Z" fill="#F2F2F2"/>
<path d="M736.692 581.882C718.749 599.588 702.289 619.39 687.549 641.002C664.481 674.71 645.814 712.502 632.198 753.062C631.202 756.021 635.168 757.309 636.153 754.383C658.431 688.464 693.995 630.364 739.592 585.396C741.64 583.376 738.723 579.879 736.692 581.882V581.882Z" fill="white"/>
<path d="M482.93 383.38C481.668 383.377 480.409 383.224 479.172 382.924H479.171C478.945 382.87 478.719 382.811 478.493 382.747L206.604 306.054C203.651 305.221 201.689 302.97 202.041 300.818C202.189 300.184 202.479 299.613 202.878 299.166C203.278 298.719 203.771 298.415 204.305 298.286C205.617 297.848 206.999 297.811 208.326 298.178L481.903 367.396C488.063 368.954 492.339 373.534 491.638 377.822C491.271 380.066 489.64 381.806 487.045 382.721C485.706 383.173 484.321 383.395 482.93 383.38Z" fill="#3F3D56"/>
<path d="M425.335 372.77C426.742 373.772 428.313 374.388 429.938 374.575C431.563 374.761 433.201 374.514 434.739 373.85C436.276 373.187 437.675 372.123 438.836 370.733C439.998 369.344 440.893 367.663 441.46 365.809L481.125 366.811L470.137 345.678L434.155 347.966C431.521 347.018 428.691 347.274 426.202 348.685C423.714 350.096 421.738 352.564 420.651 355.622C419.564 358.679 419.44 362.113 420.303 365.274C421.167 368.434 422.957 371.101 425.335 372.77V372.77Z" fill="#FFB8B8"/>
<path d="M442.563 365.093L442.357 350.364C442.342 348.844 442.797 347.372 443.633 346.238C444.468 345.104 445.624 344.39 446.873 344.237L518.15 335.904L577.536 312.314C579.328 311.602 581.219 311.329 583.1 311.51C584.98 311.692 586.812 312.324 588.489 313.371C590.166 314.418 591.654 315.858 592.867 317.608C594.08 319.358 594.994 321.382 595.556 323.564C596.118 325.746 596.316 328.041 596.139 330.316C595.962 332.591 595.413 334.801 594.525 336.817C593.636 338.833 592.426 340.615 590.964 342.059C589.503 343.504 587.818 344.582 586.01 345.23L520.278 368.808L447.684 371.042C446.587 371.075 445.511 370.669 444.623 369.888C443.734 369.107 443.083 367.994 442.768 366.72C442.639 366.192 442.57 365.644 442.563 365.093V365.093Z" fill="#3F3D56"/>
<path d="M548.043 744.824L534.431 744.823L527.957 681.219L548.045 681.22L548.043 744.824Z" fill="#FFB8B8"/>
<path d="M551.514 760.808L507.627 760.806V760.133C507.627 757.416 508.068 754.725 508.927 752.214C509.785 749.703 511.044 747.422 512.63 745.5C514.216 743.578 516.099 742.054 518.172 741.014C520.244 739.974 522.466 739.438 524.709 739.439H524.71L551.515 739.44L551.514 760.808Z" fill="#2F2E41"/>
<path d="M588.01 744.824L574.399 744.823L567.924 681.219L588.013 681.22L588.01 744.824Z" fill="#FFB8B8"/>
<path d="M591.482 760.808L547.594 760.806V760.133C547.594 757.416 548.036 754.725 548.895 752.214C549.753 749.703 551.011 747.422 552.598 745.5C554.184 743.578 556.067 742.054 558.139 741.014C560.212 739.974 562.433 739.438 564.677 739.439H564.678L591.483 739.44L591.482 760.808Z" fill="#2F2E41"/>
<path d="M597.145 487.777L593.895 721.401C593.885 722.141 593.749 722.871 593.495 723.544C593.242 724.217 592.876 724.82 592.422 725.314C591.967 725.808 591.434 726.184 590.854 726.417C590.274 726.65 589.661 726.736 589.053 726.669L573.125 724.915C572.081 724.8 571.103 724.24 570.366 723.335C569.63 722.431 569.181 721.239 569.1 719.972L559.775 574.244C559.753 573.902 559.624 573.583 559.414 573.352C559.205 573.121 558.93 572.997 558.646 573.003C558.363 573.01 558.093 573.148 557.891 573.389C557.688 573.629 557.57 573.954 557.559 574.297L552.898 723.362C552.855 724.752 552.368 726.069 551.541 727.034C550.713 727.999 549.609 728.538 548.461 728.538H531.379C530.248 728.538 529.16 728.015 528.336 727.077C527.513 726.138 527.016 724.854 526.947 723.486L514.989 486.432L586.043 464.912L597.145 487.777Z" fill="#2F2E41"/>
<path d="M545.608 268.407C560.667 268.407 572.876 253.616 572.876 235.371C572.876 217.126 560.667 202.336 545.608 202.336C530.548 202.336 518.339 217.126 518.339 235.371C518.339 253.616 530.548 268.407 545.608 268.407Z" fill="#FFB8B8"/>
<path d="M512.556 494.727C512.084 494.174 511.707 493.513 511.447 492.782C511.186 492.052 511.049 491.266 511.041 490.47L509.202 331.161C509.091 323.057 511.104 315.119 514.95 308.487C518.796 301.856 524.279 296.872 530.609 294.251C533.164 280.21 546.761 278.451 554.687 278.661C556.665 278.713 558.604 279.341 560.339 280.494C562.074 281.647 563.554 283.289 564.654 285.282L570.336 295.608L582.859 304.502C588.655 308.6 593.227 314.823 595.915 322.272C598.602 329.722 599.268 338.014 597.814 345.951L595.886 356.576C589.097 394.182 589.743 433.2 597.771 470.447L601.651 488.368C601.853 489.302 601.868 490.28 601.695 491.222C601.521 492.163 601.164 493.041 600.654 493.782C600.144 494.523 599.494 495.105 598.761 495.48C598.027 495.855 597.229 496.012 596.435 495.938L591.929 495.518C590.759 495.41 589.658 494.807 588.819 493.814C587.98 492.82 587.457 491.501 587.341 490.086L586.596 481.052C586.582 480.886 586.518 480.732 586.416 480.62C586.314 480.508 586.181 480.446 586.043 480.446C585.905 480.446 585.773 480.508 585.671 480.62C585.569 480.732 585.504 480.886 585.491 481.052L584.769 489.799C584.647 491.276 584.081 492.648 583.179 493.653C582.276 494.658 581.1 495.226 579.875 495.248L516.114 496.437C516.087 496.437 516.061 496.438 516.034 496.438C514.735 496.441 513.486 495.827 512.556 494.727V494.727Z" fill="#3F3D56"/>
<path d="M547.741 254.414C547.853 259.084 550.529 261.785 553.814 264.231C557.1 266.677 560.94 267.738 564.703 268.761C565.209 269.086 565.775 269.248 566.347 269.231C566.919 269.214 567.477 269.019 567.969 268.664C568.46 268.309 568.868 267.807 569.153 267.206C569.437 266.604 569.589 265.924 569.594 265.231L573.045 249.328C574.266 244.248 575.154 239.06 575.702 233.811C576.533 223.711 574.557 212.846 568.738 205.543C562.919 198.24 552.828 195.646 545.855 201.273C537.58 188.468 499.755 216.758 509.085 225.662C510.745 227.246 513.283 225.242 515.39 225.047C517.497 224.853 519.858 225.302 521.196 227.283C522.945 229.871 522.183 233.727 522.904 236.955C523.202 238.091 523.682 239.144 524.318 240.054C524.954 240.964 525.732 241.712 526.608 242.256C527.483 242.8 528.439 243.128 529.42 243.222C530.401 243.316 531.387 243.174 532.322 242.804C534.064 241.764 535.703 240.488 537.207 238.999C538.823 237.695 540.865 236.731 542.685 237.554C545.083 238.638 545.934 242.195 546.151 245.285C546.517 248.366 547.048 251.416 547.741 254.414V254.414Z" fill="#2F2E41"/>
<path d="M749.739 761.258H326.747C326.452 761.258 326.17 761.116 325.961 760.864C325.753 760.611 325.636 760.269 325.636 759.913C325.636 759.556 325.753 759.214 325.961 758.961C326.17 758.709 326.452 758.568 326.747 758.568H749.739C750.034 758.568 750.316 758.709 750.524 758.961C750.732 759.214 750.849 759.556 750.849 759.913C750.849 760.269 750.732 760.611 750.524 760.864C750.316 761.116 750.034 761.258 749.739 761.258Z" fill="#3F3D56"/>
<path opacity="0.2" d="M541.372 342.952L536.932 408.859L513.617 477.455L548.034 410.204L541.372 342.952Z" fill="black"/>
<path d="M508.165 503C509.438 501.762 510.471 500.201 511.192 498.427C511.913 496.653 512.304 494.709 512.337 492.733C512.371 490.756 512.046 488.794 511.386 486.985C510.726 485.177 509.747 483.566 508.518 482.265L523.371 437.696L503.163 442.64L492.156 484.206C490.49 486.853 489.683 490.149 489.888 493.468C490.093 496.788 491.297 499.901 493.27 502.218C495.243 504.535 497.85 505.894 500.595 506.038C503.34 506.182 506.034 505.101 508.165 503V503Z" fill="#FFB8B8"/>
<path d="M507.084 483.344L495.645 478.349C494.466 477.827 493.492 476.789 492.913 475.44C492.335 474.091 492.194 472.528 492.519 471.06L511.39 387.372L514.267 311.738C514.354 309.455 514.814 307.216 515.622 305.15C516.429 303.085 517.567 301.234 518.97 299.707C520.373 298.179 522.013 297.005 523.794 296.251C525.575 295.498 527.462 295.182 529.345 295.32C531.228 295.458 533.069 296.049 534.762 297.057C536.455 298.065 537.966 299.471 539.206 301.193C540.446 302.915 541.392 304.918 541.987 307.087C542.583 309.255 542.817 311.545 542.675 313.824L537.537 396.643L513.492 479.656C513.127 480.91 512.433 481.984 511.515 482.713C510.597 483.442 509.506 483.785 508.412 483.69C507.958 483.648 507.511 483.532 507.084 483.344Z" fill="#3F3D56"/>
</svg>
