<svg width="32" height="32" viewBox="0 0 32 32" fill="none" xmlns="http://www.w3.org/2000/svg">
<path d="M30.3 7.35L24 10.9V6C24 5.46957 23.7893 4.96086 23.4142 4.58579C23.0391 4.21071 22.5304 4 22 4H4C2.93913 4 1.92172 4.42143 1.17157 5.17157C0.421427 5.92172 0 6.93913 0 8V24C0 25.0609 0.421427 26.0783 1.17157 26.8284C1.92172 27.5786 2.93913 28 4 28H22C22.5304 28 23.0391 27.7893 23.4142 27.4142C23.7893 27.0391 24 26.5304 24 26V21.08L30.3 24.63C30.4616 24.7356 30.6482 24.7968 30.841 24.8075C31.0338 24.8181 31.2259 24.7778 31.3982 24.6907C31.5705 24.6035 31.7168 24.4726 31.8225 24.311C31.9281 24.1493 31.9893 23.9628 32 23.77V8.2C31.9877 8.00808 31.9253 7.82275 31.819 7.66248C31.7127 7.50221 31.5662 7.37261 31.3942 7.28661C31.2222 7.2006 31.0306 7.1612 30.8386 7.17232C30.6467 7.18344 30.4609 7.24471 30.3 7.35V7.35Z" fill="black"/>
</svg>
