<svg width="32" height="32" viewBox="0 0 32 32" fill="none" xmlns="http://www.w3.org/2000/svg">
<path d="M32 30.6667C32 31.0278 31.901 31.3403 31.7031 31.6042C31.5052 31.8681 31.2708 32 31 32C30.7292 32 30.4948 31.8681 30.2969 31.6042C30.099 31.3403 30 31.0278 30 30.6667V13.125L18.9688 20.5C18.1354 21.0556 17.1458 21.3333 16 21.3333C14.8542 21.3333 13.8646 21.0556 13.0312 20.5L1.21875 12.625C0.40625 12.0694 0 11.4097 0 10.6458C0 9.88195 0.40625 9.23611 1.21875 8.70833L13.0312 0.833333C13.8646 0.277778 14.8542 0 16 0C17.1458 0 18.1354 0.277778 18.9688 0.833333L30.7812 8.70833C31.4896 9.18056 31.8854 9.76389 31.9688 10.4583C31.9896 10.4861 32 10.5417 32 10.625V30.6667ZM19.9688 21.1667L26 17.125V25C26 26.1944 25.026 27.2153 23.0781 28.0625C21.1302 28.9097 18.7708 29.3333 16 29.3333C13.2292 29.3333 10.8698 28.9097 8.92188 28.0625C6.97396 27.2153 6 26.1944 6 25V17.125L12.0312 21.1667C12.8646 21.7222 14.1875 22 16 22C17.8125 22 19.1354 21.7222 19.9688 21.1667Z" fill="black"/>
</svg>
