<svg width="32" height="32" viewBox="0 0 32 32" fill="none" xmlns="http://www.w3.org/2000/svg">
<path d="M11.9091 0V2.56H20.0909V0H11.9091ZM16 3.84C7.73227 3.84 1 10.1606 1 17.92C1 25.6806 7.73364 32 16 32C24.2677 32 31 25.6794 31 17.92C31 14.185 29.4495 10.7648 26.9091 8.23936L29.2532 6.04032L27.2909 4.1984L24.8227 6.52032C22.2587 4.77187 19.1692 3.83329 16 3.84V3.84ZM16 6.4C22.7909 6.4 28.2727 11.5456 28.2727 17.92C28.2727 24.2944 22.7909 29.44 16 29.44C9.20909 29.44 3.72727 24.2944 3.72727 17.92C3.72727 11.5456 9.20909 6.4 16 6.4ZM14.6364 8.96V15.7197C13.8209 16.1651 13.2727 16.9741 13.2727 17.92C13.2727 18.8646 13.8209 19.6749 14.6364 20.1203V21.76H17.3636V20.1203C18.1791 19.6749 18.7273 18.8659 18.7273 17.92C18.7273 16.9754 18.1791 16.1651 17.3636 15.7197V8.96H14.6364Z" fill="black"/>
</svg>
