<svg enable-background="new 0 0 500 500" height="500" viewBox="0 0 500 500" width="500" xmlns="http://www.w3.org/2000/svg" xmlns:xlink="http://www.w3.org/1999/xlink"><defs><clipPath id="a"><path d="m634.8 199.2h113v12.3h-113z"/></clipPath><clipPath id="b"><use xlink:href="#e"/></clipPath><clipPath id="c"><path d="m635.5 365.4h137.1v12.2h-137.1z"/></clipPath><clipPath id="d"><path d="m-194.6 112.2h126.3v180.2h-126.3z"/></clipPath><path id="e" d="m677.1 135.3h15v15.3h-15z"/></defs><ellipse cx="314" cy="410.4" fill="#bfedf3" opacity=".35" rx="55.2" ry="4.8"/><path d="m199.1 397.2-.2 16.6 8.4.1.3-18.3z" fill="#efbfa5"/><path d="m206.6 411.3-7.3 2.8-2.2 2.7.4 6.5 19.8 1.8c1.7-2.8.6-6.7-2.2-7.8l-.9-.4z" fill="#292949"/><path d="m136.1 382.7-5.5 15.2 7.7 3.9 6.2-16.9z" fill="#efbfa5"/><path d="m140.5 400.7c-.3-.4-.6-.7-1-1-.9-.8-8.4-5.4-9.1-3.3-.1.3-.1.7 0 1.1.6 6 1.8 11.9 3.6 17.6.8 2.4 1.9 5.1 4.1 5.7.9.3 1.9.1 2.9-.2 1.4-.4 2.8-.9 4.1-1.5.5-.2 1-.5 1.3-1 .5-1.1-.4-2.3-1.3-2.9s-2.1-1-2.5-2.1c-.2-.5-.2-1.1-.3-1.6-.3-4.1.3-8-1.8-10.8" fill="#292949"/><path d="m183.8 320.8c-2.8 14.7-10.7 25.2-19.1 36-9.7 12.3-15.8 25.6-24.2 39.1-3.7-1.8-5-2.5-8.7-4.3 3.1-20.6 11.5-39.5 18-59 4.5-13.6 8.2-27.9 8.4-42.5.1-7.3-1.4-13.9-2.2-21-1-8.8-1.1-17.8-2-26.6-.3-3-.5-6.5 1.5-8.4.9-.9 2-1.2 3.1-1.5 41.6-9.4 30.5 60.3 25.2 88.2" fill="#53c4db"/><path d="m155.2 245.1c0-8.9.9-17.5 2.3-24 11.8-.7 25.2.8 36.9 3.5 11.4 2.7 18.6 5.6 18.6 20 .2 26.5 3.8 50.6 7.6 76.1 2.2 14.8-1.6 28-5.9 41.7-4.9 15.7-3.8 30.1-7.2 46.3-4 0-5.5-.1-9.4-.1-3.9-20.4-4.7-41.6-5.1-62.6-.2-14.5-1.5-29.4-6.1-43.1-5.1-15-12.3-9-20.7-17.7-8.1-8.4-11-24.7-11-40.1" fill="#53c4db"/><path d="m196.9 120.8h11.8c.2-.9.4-1.8.5-2.7 1.4-11.3-4.2-21.3-12.4-22.3-8.3-1-16.1 7.3-17.5 18.6s4.2 21.3 12.4 22.3c5 .6 9.8-2.2 13.2-7-4.6-.5-8-4.3-8-8.9z" fill="#efbfa5"/><path d="m296.5 149.3-23.3.8 2.8 52.2 24.3-10.1z" fill="#3dafcb"/><path d="m181.8 167.6c-.5.4 11.9 12.8 12.7 13.5 12.2 10.7 28.8 17.1 45.1 15.8 16.5-1.4 35.4-12.7 43.2-27.6.9-1.7 2.4-5-.2-5.6-2-.5-6.2 3.8-7.4 4.9-12.3 10.6-44.7 39.5-86.8-6.1z" fill="#efbfa5"/><path d="m177 152.7c-5.4 5.7-9.3 12.1-8.3 20.3 1 7.8 5.1 14.9 9.5 21.5 1.9 2.8 3.9 5.6 6.8 7.4.5.3 11.8-11.4 13.1-12.6 4.3-4.1 9.7-8 12.9-13.1-.5.8-9.6-10.8-10.3-11.8-4-5.6-8.6-13.3-16-14.4-3.6-.5-6.8.9-9 3.6.4-.2.9-.5 1.3-.9z" fill="#81adba"/><path d="m178.9 150.6c-13.5 12.6-20.4 30.5-24.1 48.3-1.9 9.1-2.9 18.3-3.6 27.5-.4 4.9-.6 9.8-.4 14.6.1 2 .7 16.6 2.8 17 20.1 4.1 43.8-5 64.1-8.1 3.6-.6-16.9-79.3-17.9-83.1-1.3-5-3.1-10.2-6.9-13.8s-10-5.1-14.3-2.2z" fill="#acdae3"/><path d="m181 128s1 16-2.8 24.7c0 0 7.9 6.7 14.9 1 0 0-2.8-9 .7-20 0 0-10.3-15.2-12.8-5.7z" fill="#efbfa5"/><path d="m174.2 99.2c-2.2 0-4.4-1.2-5.4-3.2 1.6-.1 3.3.2 4.7.8-.2-1.3-.5-2.6-.7-3.9 1.4.6 2.5 1.6 3.3 2.9-1.4-2.2 2.9-6.3 4.5-7.4 4.7-3.1 10.3-3.2 15.7-2.6 11.8 1.2 23.1 2.6 32.5-6.2.7 3.1 1.3 6.2.9 9.3s-2.1 6.2-5 7.5c0-1.1 2.2-.5 2 .6s-1.5 1.7-2.6 1.9-2.4.5-3 1.5c1-.1 1.7 1.3 1.3 2.3s-1.3 1.6-2.2 2.1c-11.1 6.1-25.6 5.6-36.2-1.3.3 2.5.9 17.5-3.8 15.5-2.6-1.1-4.7-6.3-5.5-8.8-.6-1.2-3.8-11-.5-11z" fill="#4a4ba7"/><path d="m294.9 149.7-22.2 5 2.2 51.8 22.5-11.7z" fill="#bfedf3"/><path d="m274.6 159.7 3 48.6 23-12.9-4.1-46.1z" fill="#3dafcb"/><path d="m173.6 167.9c-.7.4 12 16.3 12.8 17.2 12.6 13.9 30.8 23.5 49.7 24.2 19.1.7 42.4-9.8 53.3-25.9 1.2-1.8 3.4-5.4.6-6.5-2.2-.8-7.6 3.6-9.1 4.6-15.6 10.5-56.7 39.3-98.9-18.7-.1 0-8.4 5.1-8.4 5.1z" fill="#efbfa5"/><path d="m174.8 154.3c-5.4 4.2-6.9 12-5.3 18.6s5.8 12.3 10.3 17.5c1.9 2.2 3.9 4.4 6.5 5.7 6.7-8.3 13.3-16.6 20-24.8-4.5-1.6-7.7-5.5-10.6-9.3-2.9-3.7-6-7.7-10.4-9.5s-10.4-.6-12.2 3.8" fill="#81adba"/><circle cx="178.6" cy="118.2" fill="#efbfa5" r="4.3"/><path d="m193 136.9s-4.7-.7-7.2-5.3c0 0 3.3 21.4 7.4 22.2-.1-.1-2.1-11.2-.2-16.9z" fill="#efbfa5"/><path d="m344.3 358.2h1.4v17.3h-1.4z" fill="#bfedf3"/><path d="m293.6 353.6h1.4v17.3h-1.4z" fill="#bfedf3"/><path d="m341.2 338.4-49.1 4.5c-4.4.4-7.6 4.3-7.2 8.6s4.3 7.6 8.6 7.2l49.1-4.5z" fill="#fff"/><path d="m343 355.5-49.3 4.5c-5.1.5-9.5-3.2-10-8.3s3.2-9.5 8.3-10l49.3-4.5c.7-.1 1.3.5 1.3 1.1.1.7-.5 1.3-1.1 1.3l-49.3 4.5c-3.8.3-6.5 3.6-6.2 7.4s3.6 6.5 7.4 6.2l49.3-4.5c.7-.1 1.3.5 1.3 1.1.2.5-.3 1.2-1 1.2z" fill="#378497"/><path d="m341.5 343.6-47.5 3.7c-.6 0-1.1-.4-1.1-1 0-.6.4-1.1 1-1.1l47.5-3.7z" fill="#81adba"/><path d="m341.9 347.7-47.5 3.7c-.6 0-1.1-.4-1.1-1 0-.6.4-1.1 1-1.1l47.5-3.7z" fill="#81adba"/><path d="m342.2 351.3-47.4 4.9c-.6.1-1.1-.4-1.1-.9-.1-.6.4-1.1.9-1.1l47.4-4.9z" fill="#81adba"/><path d="m285.9 410.4v-17.3h59.1c.8 0 1.4.6 1.4 1.4v14.5c0 .8-.6 1.4-1.4 1.4z" fill="#81adba"/><path d="m336.4 393.1h1.4v17.3h-1.4z" fill="#bfedf3"/><path d="m333.5 393.1h1.4v17.3h-1.4z" fill="#bfedf3"/><path d="m304.6 403v-2.5c0-.1.1-.2.2-.2h22.7c.1 0 .2.1.2.2v2.5c0 .1-.1.2-.2.2h-22.7c-.1 0-.2-.1-.2-.2z" fill="#bfedf3"/><path d="m299.5 392.8v-17.3h44.7c.8 0 1.4.6 1.4 1.4v14.4c0 .8-.6 1.4-1.4 1.4h-44.7z" fill="#378497"/><path d="m299.5 375.5v-17.3h53.4c.8 0 1.4.6 1.4 1.4v14.4c0 .8-.6 1.4-1.4 1.4h-53.4z" fill="#3dafcb"/><path d="m302.4 361.1v10.1c0 .8.6 1.4 1.4 1.4h46.2c1.6 0 2.9 1.3 2.9 2.9h-11.5-20.2-21.6v-17.3c1.5 0 2.8 1.3 2.8 2.9z" fill="#bfedf3" opacity=".49"/><path d="m319.7 368.1v-2.5c0-.1.1-.2.2-.2h15.5c.1 0 .2.1.2.2v2.5c0 .1-.1.2-.2.2h-15.5c-.1 0-.2-.1-.2-.2z" fill="#bfedf3"/><path d="m314 385.4v-2.5c0-.1.1-.2.2-.2h9.7c.1 0 .2.1.2.2v2.5c0 .1-.1.2-.2.2h-9.7c-.2 0-.2-.1-.2-.2z" fill="#bfedf3"/><circle cx="326.9" cy="384.1" fill="#bfedf3" r="1.4"/><path d="m331.7 344.4 1.1 11.6-3.8-3.3-3.4 4.4-1.1-12.1z" fill="#3dafcb"/><path d="m330.9 309.9-23 1.2 5.2 26.7c.1.7.7 1.2 1.4 1.1l12.6-.7c.7 0 1.2-.6 1.3-1.3z" fill="#fff"/><path d="m327.1 310.1-2.5 28.3 2.6-.1c.7 0 1.2-.6 1.3-1.3l2.4-27.1z" fill="#e6e6e6"/><path d="m328.3 305.9-18.2.9c-.3 0-.5.2-.5.5l-.6 4.1 21-1.1-1-4c-.2-.3-.5-.5-.7-.4z" fill="#378497"/><path d="m331.7 312.4-24.4 1.3c-.4 0-.8-.3-.8-.8l-.1-2.1c0-.4.3-.8.8-.8l24.4-1.3c.4 0 .8.3.8.8l.1 2.1c0 .4-.4.8-.8.8z" fill="#378497"/><path d="m311.7 334.5-3.3-16.7c-.1-.4.2-.8.6-.8l21.3-1.1c.4 0 .7.3.7.7l-1.5 17c0 .3-.3.6-.6.6l-16.5.9c-.4-.1-.6-.3-.7-.6z" fill="#3dafcb"/><path d="m330.2 315.9-3 .2-1.5 18.3 3.2-.2c.3 0 .6-.3.6-.6l1.4-17c0-.4-.3-.8-.7-.7z" fill="#81adba"/><path d="m305.8 375.6h1.4v17.3h-1.4z" fill="#bfedf3"/><path d="m302.9 375.6h1.4v17.3h-1.4z" fill="#bfedf3"/><image height="700" overflow="visible" transform="matrix(.7143 0 0 .7143 -856 .8417)" width="700" xlink:href="../Desktop/43122-[преобра2323зованный].png"/><path d="m641.9 333.9c2.4-1.4 6-1.8 8.9-3.4 1.5-.8 1.4-4.1 4.5-2.6 1.1.6 3.1 2.2 5.2 3.3 3.2 1.5 7.8 1.8 11.8 1.3 15.8-2 31.6-3.8 47.6-4 .9 0 1.8 0 2.6-.5 1.4-.8 1.8-2.4 2.2-3.9 2.2-7 4.7-13.8 8.2-20.2 3.2-5.8 6.8-11.2 12.2-15s12.3-5.3 18.3-2.8c4.5 1.9 8.1 5.5 8.6 10.4 1.3 12.2-10.5 20.2-17.9 28.1-7 7.4-12.9 13.7-20.1 20.4-.9.8-1.7 1.6-2.9 2s-2.5.3-3.7.2c-15.9-1.6-31.3-3.6-47.1-1.7-4.3.5-8.2-.7-12.3.3-2.6.6-4.2 3.1-6.7 4.1s-5.4 2-8 1.9c-5.9-.1-12-5.6-13.5-11.3-.9-3.6.2-5.4 2.1-6.6" fill="#efbfa5"/><path d="m754.4 320.4c-8.6-4.2-17.8-7.1-26.2-11.9 3.8-7.3 15.7-37.4 17.6-40.9 7.2-13.6 8.9-19.6 17.9-26.3 19.1-14.4 39.1-2 36.3 20.5-3.1 24.4-18.1 44.3-34 62-.3.4-.8.7-1.4.8-.6.2-1.4-.1-2-.4-2.6-1.4-5.5-2.5-8.2-3.8" fill="#acdae3"/><path d="m748.8 659.9c-3.1.1-6.2-.6-9.2-.9-1.6-30.6 1.3-62.6 2.6-93.3 7.9.4 15.7.8 23.6 1.3-5.5 16.4-9.4 33.4-11.7 50.5-.5 2.7-4.9 42.4-5.3 42.4" fill="#efbfa5"/><path d="m738.6 653.1c-1.9-.3-3.1.5-4.4 1.7-.8.7-1.3 1.7-2.2 2.1-.9.5-1.8.6-2.9.7-5.7.6-18.7.3-11.8 9.8 6.3 8.6 23.1 5.2 32.8 2.8.6-.2 1.3-.2 1.8-.7s.8-1.2 1-1.9c1.1-4 2.6-9.1-2.4-10.8-2.1-.7-4.1.7-6.3-.1-1.8-.6-3.7-3.2-5.6-3.6" fill="#292949"/><path d="m724.5 584.1c16-.3 32-.6 48.1-.9 13-61.7 24.4-123.7 34.2-185.9.8-4.8 1.5-9.8.1-14.5-2.6-8.9-12.1-13.9-21.2-15.6-14.1-2.6-40.1 1-47.3 15.7-7.7 15.5-6.4 43.2-8.2 60.4-5.1 46.7-7 93.8-5.7 140.8" fill="#53c4db"/><path d="m840.4 659.9c3.1.1 6.2-.6 9.2-.9 1.6-30.6-1.3-62.6-2.6-93.3-7.9.4-15.7.8-23.6 1.3 5.5 16.4 9.4 33.4 11.7 50.5.4 2.7 4.8 42.4 5.3 42.4" fill="#efbfa5"/><path d="m850.6 653.1c1.9-.3 3.1.5 4.4 1.7.8.7 1.3 1.7 2.2 2.1.9.5 1.8.6 2.9.7 5.7.6 18.7.3 11.8 9.8-6.3 8.6-23.1 5.2-32.8 2.8-.6-.2-1.3-.2-1.8-.7s-.8-1.2-1-1.9c-1.1-4-2.6-9.1 2.4-10.8 2.1-.7 4.1.7 6.3-.1 1.8-.6 3.6-3.2 5.6-3.6" fill="#292949"/><path d="m864.7 584.1c-16-.3-32-.6-48.1-.9-13-61.7-24.4-123.7-34.2-185.9-.8-4.8-1.5-9.8-.1-14.5 2.6-8.9 12.1-13.9 21.2-15.6 14.1-2.6 40.1 1 47.3 15.7 7.7 15.5 6.4 43.2 8.2 60.4 5.1 46.7 7 93.8 5.7 140.8" fill="#53c4db"/><path d="m823.6 245.9c12.8 12.2 22.5 27.9 28.3 44.2 10.3 28.8 10.5 59.5 10.6 89.7 0 10 .1 20.1.1 30.1 0 9.9-.8 12-11.6 10.7-19.9-2.4-40.5-6.5-58.5-15.3-8.6-4.2-16.6-9.5-25.6-12.8-13.1-4.8-26.5-2.6-39.4-5.8 5.6-17 9.6-31.4 12.5-48.9 3-18 5.7-37.6 10-55.4 2.6-10.7 7.5-20.6 12.4-30.4 3.3-6.6 6.8-13.3 12.5-18.1 16.9-14.4 35.9-.2 48.7 12" fill="#acdae3"/><path d="m777.3 203.7c2.4 5.3 6.4 9.7 9.6 14.6 3.1 4.7 4.3 9 5.1 14.5.6 4 2 7 6.8 7.7 9 1.3 6.4-6.1 8.4-11.5 2.3-6.2 7.3-11 10.8-16.5 10-15.9 7.2-47.3-13.7-54-22.8-7.5-34.4 29.1-27 45.2" fill="#efbfa5"/><path d="m813.6 188.3c2.6.1 5.4.3 7.4 2 1.9 1.7 1.7 5.5-.8 5.9-2.3.4-5.3-2-6.7-.3-.8 1-.1 2.5.5 3.7 2.4 4.6 3.1 9.9 2 14.8.9.9 2.4 0 3.3-.9 4.1-4.5 7.3-9.8 9.5-15.5.8 1.4 2 2.6 3.5 3.4-.9-2.1-.3-4.5.2-6.7 1.9-8 3.3-17.5-2.3-24-3-3.5-7.6-5.5-12.2-6.4s-9.3-.6-13.9-.4c-2 .1-4.4.5-4.9 2.4 4.3 1.7 8.8 5.1 11 9.3.6 1.1 3.2 12.7 3.4 12.7" fill="#4a4ba7"/><path d="m804.5 169c.2.1.3.2.5.3 2 1.5 3.8 3.3 6.2 4 3.4 1 7.1-.7 10.5.5 3.8 1.3 6.3 5.8 9 8.5 4.5 4.4 10.1 7.6 16.2 9.5 3.1.9 6.3 1.5 9.5 1.7 1.5.1 3.4.4 4.8 0 1.9-.5 1.8-1.4-.2-2-6.4-2-8.4-11-7.9-16.9.4-4.7 2-9.6.2-13.9-1.4-3.3-4.3-5-7.1-6.9-3.1-2.1-6.5-1.5-10-2.5-3.7-1.1-6.7-4-10.5-4.7-4-.8-8 1-11.9 1.8-3.3.6-6.7.6-10-.1-2.9-.6-5.8-1.8-8.8-1.8-4.4 0-8.5 2.8-11.1 6.4-3.7 5.1-6 13.8-4.7 20.5-.2-1 3.3-4.8 4-5.6 1.5-1.7 3.4-3.3 5.7-3.6 5.1-.9 11.3 1.7 15.6 4.8" fill="#4a4ba7"/><path d="m629.9 374.9s4.9 22 1.6 32l6.7.5-.7-35.9z" fill="#bfedf3"/><path d="m666.6 162.5-11.3 4.2.2-2.7c.5-8.2-1-18.1-3.3-26l.5-.5 10.4-9z" fill="#bfedf3"/><path d="m731.5 158.1-65.8 2.9-10.7 5.6 71.3-3z" fill="#9eb79c"/><path d="m654.8 165.9c1.9-.5 3.7-1.8 5.5-2.8 1.7-.9 3.4-1.9 5.1-2.8.3-.1.5.7.2.9-1.8 1-3.7 2-5.5 3-1.7 1-3.4 2.1-5.2 2.6-.3.1-.4-.8-.1-.9" fill="#b0c0ba"/><path d="m663 129.8c-3.8 2.5-7.5 5.5-11 9.2-.4.4-.8-.8-.5-1.2 3.6-3.7 7.3-6.8 11.2-9.3.4-.3.7 1 .3 1.3" fill="#81adba"/><path d="m728.7 126-66.3 2.6 1 7.3c.8 5.9 1.4 11.8 1.8 17.7l.4 7.4 65.8-2.9v-.4c.6-10.4-.3-21.4-2.7-31.7" fill="#81adba"/><path d="m672.5 128.9c-.2-.9-1.6-.8-1.4.2 2 9.8 2.8 19.7 2.1 29.7-.1.9 1.4 1.2 1.4.2.6-10.1-.1-20.2-2.1-30.1" fill="#bfedf3"/><path d="m720.8 127.4c-.2-.9-1.6-.7-1.4.2 2.1 9.8 2.9 19.7 2.4 29.7-.1.9 1.4 1.2 1.4.2.6-10.1-.2-20.2-2.4-30.1" fill="#bfedf3"/><path d="m635 206.3-25.4 6.5.5-3.7c1.6-11.1-.8-24.3-5.5-34.8l1.1-.7 23.7-12.9z" fill="#bfedf3"/><path d="m779 195.6-146 8.7-24 8.3 158.1-9.2z" fill="#378497"/><path d="m608.6 211.7c4.3-.8 8.4-2.7 12.5-4.2 3.8-1.4 7.7-2.8 11.5-4.2.6-.2 1 1 .4 1.2-4.1 1.5-8.3 3-12.4 4.5-3.9 1.4-7.7 3.1-11.8 3.9-.7.1-.8-1.1-.2-1.2" fill="#378497"/><path d="m629.4 162.4c-8.6 3.6-17 8-25.1 13.1-.8.5-1.8-1.1-1-1.6 8.2-5.2 16.7-9.7 25.5-13.3.9-.3 1.5 1.5.6 1.8" fill="#378497"/><path d="m775.3 152.5-147.1 8.3 1.7 9.8c1.4 7.9 2.3 15.8 2.7 23.8l.4 10 146-8.7.1-.6c2-14.1.7-28.9-3.8-42.6z" fill="#3dafcb"/><path d="m773 396.2-134.8 11.3-2.7-32.4 134.8-11.3.2.4c3.9 10.2 4.8 21.3 2.5 32" fill="#378497"/><path d="m650.6 373.1h18.9v32.5h-18.9z" fill="#bfedf3" transform="matrix(.9965 -.08353159 .08353159 .9965 -30.2138 56.4948)"/><path d="m633 340.8-25.3-1.6 1.2 2.8c3.5 8.4 3.5 18.9.8 27.5l1.1.4 24.6 6.9z" fill="#bfedf3"/><path d="m779.1 329-147.7 13.6-24.2-3.2 158.2-15z" fill="#378497"/><path d="m635.1 375.5c-8.8-1.7-17.5-4-26-6.9-.9-.3-1.5 1-.6 1.3 8.6 3 17.4 5.3 26.3 7.1 1 .1 1.2-1.3.3-1.5" fill="#3dafcb"/><path d="m782.1 364.5-147.8 12.4v-7.7c0-6.3-.5-12.5-1.5-18.7l-1.4-7.8 147.7-13.7.2.5c4.3 11.1 5.3 23.3 2.8 35" fill="#3dafcb"/><path d="m764.6 327.9-140 11.7c-.2 0-.4-.1-.4-.3l-2.8-32.8c0-.2.1-.4.3-.4l140-11.7c.2 0 .4.1.4.3l2.8 32.8c.1.2-.1.4-.3.4" fill="#3dafcb"/><path d="m779.1 269-173.1 14.5c-.2 0-.4-.1-.4-.3l-2-23.7c0-.2.1-.4.3-.4l173.1-14.6c.2 0 .4.1.4.3l2 23.7c.1.3-.1.5-.3.5" fill="#3dafcb"/><path d="m749.3 247.3-110.4 9.2-4.1-48.4 110.4-9.2.6 2.7c3.3 14.1 4.6 28.6 3.6 43z" fill="#378497"/><path d="m673 253.4-21.9 1.8-4-47.7 21.9-1.8z" fill="#bfedf3"/><path d="m653.8 206.5h12.3v47.9h-12.3z" fill="#378497" transform="matrix(.9965 -.0835351 .0835351 .9965 -16.9446 55.934)"/><path clip-path="url(#a)" d="m634.8 208.5 110.4-9.3 2.6 12.4-112.7-.5z" fill="#000100" opacity=".13"/><g fill="#bfedf3"><use xlink:href="#e"/><path clip-path="url(#b)" d="m692.1 142.3c.4 4.2-2.7 7.9-6.8 8.3-4.1.3-7.8-2.8-8.1-7-.4-4.2 2.7-7.9 6.8-8.3 4.1-.3 7.7 2.8 8.1 7"/><path d="m621.9 269.6c-1.6-1.8-3.5-3.2-5.6-4.4-.8-.5-1.4.9-.6 1.3 1.8 1 3.3 2.3 4.7 3.7-1.3 1.8-2.6 3.4-4.1 5-.7.7.5 1.6 1.1 1 1.7-1.7 3.2-3.6 4.5-5.6.3-.3.3-.7 0-1"/><path d="m630.3 268.6c-1.1-1.4-3.1-2.6-4.5-3.8-.7-.6-1.7.5-.9 1.1 1.2 1 2.9 2 3.9 3.1-.5.7-1.4 1.4-1.9 2-.7.8-1.4 1.6-2.1 2.4-.6.7.5 1.7 1.1 1 .9-1 1.7-1.9 2.6-2.9.6-.7 1.5-1.4 1.9-2.3.1-.1.1-.4-.1-.6"/><path d="m634.3 262.5c-.7-.6-1.7.5-.9 1.1.4.4 1.3 1.7.4 2s-.4 1.6.5 1.4c.9-.3 1.4-1.1 1.3-2.1 0-.9-.6-1.8-1.3-2.4"/><path d="m642.7 265.6c-.2-.3-.5-.3-.8-.2-1.3-.5-2.8-.2-3.6 1-.8 1.1-.5 2.8.5 3.7 1.1 1 2.8.9 3.8-.1 1.2-1.2 1.2-3.1.1-4.4m-1 3.3c-.5.6-1.4.7-1.9.1-1.1-1.2.2-2.9 1.6-2.2.1.1.3.1.4.1.4.5.4 1.4-.1 2"/><path d="m742.9 295.9h1.7v33.8h-1.7z" transform="matrix(.9965 -.08367771 .08367771 .9965 -23.5664 63.331)"/><path d="m749.7 295.3h1.7v33.8h-1.7z" transform="matrix(.9965 -.08373725 .08373725 .9965 -23.5101 63.941)"/></g><path clip-path="url(#c)" d="m635.5 376.8 135.4-11.3s1.2 3.2 1.7 5.4l-136.8 6.8z" fill="#378497" opacity=".11"/><path d="m772.2 293.8-173.2 14.5c-.2 0-.4-.1-.4-.3l-2-23.7c0-.2.1-.4.3-.4l173.1-14.5c.2 0 .4.1.4.3l2 23.7c.1.2 0 .4-.2.4" fill="#378497"/><path d="m617.7 289.3h2.6v10.1h-2.6z" fill="#bfedf3" transform="matrix(.9965 -.08337299 .08337299 .9965 -22.3841 52.6345)"/><path d="m625.9 288.6h2.6v10.1h-2.6z" fill="#bfedf3" transform="matrix(.9965 -.08337615 .08337615 .9965 -22.2988 53.32)"/><path d="m779.7 268.5-173.6 14.8c-.5 0-.9-.4-.9-.9l173.8-16.2z" fill="#bfedf3"/><path d="m779 267.5-173.6 14.8c-.5 0-.9-.4-.9-.9l173.8-16.2z" fill="#bfedf3"/><path d="m627.3 212.8s7.8 30.2 2.7 43.4l8.9.4-4.1-48.1z" fill="#bfedf3"/><path d="m760.3 369.8c.1-.3.2-.6.4-.8 1.7-2.3 3.9-2.5 6.2-4.2 1-.8.7-4 3.2-3.1.9.3 3.1 1.4 5 2.1 2.8 1 7.1.6 10.4-.4 4.4-1.3 9.1-2.7 13.2-4.7 4.3-2 8.6-4.2 12.7-6.6 3.4-2 8.9-4.3 11.5-7.3 4.4-5.1-.7-17.7-1.3-24.1-.6-6.7 0-26.4 9-27 14.8-.9 15 13.2 15.7 24.5.4 7.1.4 14.3-.3 21.3-.9 9.9-7.3 15.6-15.8 20.2-9 5-18.2 9.8-28 12.8-4.8 1.4-9.5 1.9-14.4 2.7-4.8.8-4.2 2.9-8.3 4.7-2.3 1-4.4 2.4-6.8 3-4.3 1-7.8-2-11.1-4.3-.8-.6-1.4-1-1.8-1.8-.7-1.4-.4-2.8-.2-4.3.2-1.1.4-1.9.7-2.7" fill="#efbfa5"/><path d="m846 321.9c-8.4 1.6-16.7 3.2-25.1 4.9.5-.1-9.7-37.6-10.2-39.8-2-8.6-4.1-17.5-2.3-26.2 3.7-18.5 12.6-23 23.8-3.6 10.6 18.3 27.2 40.3 23.9 61.1-.1.5-.2.9-.4 1.3-.4.5-1.1.6-1.7.8z" fill="#acdae3"/><path d="m607 340.2c4.2.1 8.4.9 12.5 1.5 3.9.6 7.8 1.1 11.7 1.7.6.1.8-.9.2-1-4.2-.6-8.4-1.2-12.6-1.8-3.9-.6-7.9-1.4-11.8-1.4-.7 0-.6 1 0 1" fill="#3dafcb"/><path d="m-65 148.2c-.3-.1-.6-.3-1-.3-3-.4-4.9 1.2-7.9 1.7-1.3.2-3.7-2.4-4.8.2-.4 1-1.2 3.5-2.1 5.5-1.3 3-4.8 6-8 7.9-12.5 7.4-26.7 11.1-40.9 14.3-.8.2-1.7.4-2.5.2-1.4-.4-2.3-1.8-3-3.1-3.2-6.1-7-11.8-11.3-17.2-3.8-4.8-8.2-9.4-13.7-12-5.5-2.7-12.4-3.1-17.6.1-3.9 2.4-6.5 6.8-6.7 11.4-.6 11.4 14.4 18.6 22.2 24.4 7.4 5.5 15.2 10.5 23.3 14.9 1 .5 2 1.1 3.2 1.2s2.4-.3 3.6-.7c14.8-5.1 29.1-11.4 43.3-18.1 3.9-1.8 6.4-5.5 10-7.1 2.3-1.1 4.9-.2 7.3-.7s5.4-1.8 7.4-3.1c4-2.7 4.2-7.6 4.8-11.9.2-1.1.3-1.8-.1-2.8-.6-1.6-1.9-2.4-3.2-3.3-.6-.6-1.4-1.1-2.3-1.5" fill="#efbfa5"/><path d="m-163.3 177c7.5-5.4 15-10.7 22.5-16.1-.5.3-22.3-35.5-23.6-37.5-5.2-8-10.7-16.2-18.8-21.2-17.2-10.8-39 4.8-32.4 24.8 7.2 21.7 23.3 42.4 42.1 55.3.4.3.8.6 1.3.6.7.1 1.3-.4 1.8-.8 2.4-1.7 4.7-3.4 7.1-5.1" fill="#dddae8"/><path d="m-176.8 453.6-.3 23.1 13.7.2.4-25.6z" fill="#efbfa5"/><path d="m-164.6 473.3-11.9 3.9-3.6 3.8.6 9.1 32.2 2.5c2.7-4 1-9.3-3.6-10.9l-1.5-.5z" fill="#292949"/><path d="m-279.2 433.3-9.1 21.3 12.7 5.3 10-23.5z" fill="#efbfa5"/><path d="m-272.2 458.5c-.5-.5-1-1-1.6-1.4-1.5-1.1-13.7-7.6-14.8-4.7-.2.5-.1 1-.1 1.5 1 8.4 3 16.7 5.9 24.6 1.2 3.4 3.1 7.2 6.6 8 1.5.4 3.2.1 4.7-.3 2.3-.5 4.5-1.2 6.7-2 .8-.3 1.6-.7 2.1-1.4.8-1.5-.6-3.3-2.1-4.1s-3.4-1.4-4.1-2.9c-.3-.7-.4-1.5-.4-2.2-.3-5.8.7-11.2-2.9-15.1" fill="#292949"/><path d="m-193.1 348.3c-4.5 20.5-17.3 35.3-31.1 50.4-15.7 17.3-30.5 35.4-44.2 54.3-5.9-2.5-11.9-5-17.8-7.4 5-28.9 18.7-55.4 29.3-82.7 7.4-19 13.4-39 13.7-59.6.2-10.2-2.3-19.5-3.6-29.4-1.6-12.3-1.7-24.9-3.2-37.2-.5-4.1-.8-9 2.4-11.7 1.4-1.2 3.3-1.7 5.1-2.1 67.5-13 57.9 86.4 49.4 125.4" fill="#53c4db"/><path d="m-248.2 240.6c0-12.5 1.5-24.5 3.8-33.6 19.2-1 41 1.1 60 5 18.6 3.8 30.2 7.8 30.3 28 .2 37.1 14.7 68.7 21 104.3 3.6 20.7-2.6 39.2-9.6 58.4-8 22-14.8 44.3-20.3 67-6.4 0-12.9-.1-19.3-.1-6.4-28.6-3.7-58.3-4.3-87.6-.4-20.4-2.5-41.2-9.9-60.3-8.2-21-20.1-12.6-33.7-24.8-13.2-11.9-17.9-34.8-18-56.3" fill="#53c4db"/><path d="m-226.4 97.9c-2.1 1.6-4 3.6-5.8 5.6-1.7 1.8-3.3 3.5-5 5.3-5.7 6.1-8.5 15.1-11 22.9-12.9 41-17.6 97.3-9.2 140.2 31.8 2.7 68.6-5.3 100.3-9.6 3.1-.4 6.6-1.1 8.2-3.8 1-1.6 1-3.6 1-5.5 0-27.2-5.8-56.5-11.2-83.3-2.3-11.3-5.1-22.5-8.7-33.5-3.8-11.6-8.1-24.2-17-33-9.5-9.4-27.8-14.1-39.7-6.7-.6.4-1.2.9-1.9 1.4" fill="#acdae3"/><path d="m-222.9 103.6c-.6-3.7-1.1-7.4-1.7-11.1-.8-.4-1.5-.8-2.2-1.2-13.3-8.5-35.5-53.9-.2-64.1 32.1-9.2 30.4 34.9 24.2 53.3-1.1 3.2-2.5 6.1-4.6 8.7-1.5 1.8-1.8 1.4-1.6 3.5.2 2 2.2 4.2 2.6 6.3.5 2.2.3 4.7-1 6.6-.8 1.1-1.9 2-3.2 2.7-2 1-4.2 1.6-6.4 1.2-2.6-.6-5.5-3.3-5.9-5.9" fill="#efbfa5"/><path d="m-195.3 63.8c-2.7 9.1-5 12.6-8.2 16.6-6.7 8.5-1.1-21.8-3.9-32.3-.2-.8-.4-1.7 0-2.4s1.2-.9 2-1.1c13.6-2.8 13.6 9 10.1 19.2" fill="#292949"/><path d="m-230.8 80.2c-2.2 3-6.9 2.2-10.3.5-13.7-6.9-21.8-23.5-18.8-38.6 2.6-12.6 18.4-22.1 21.7-6.4 1.1 5.5-2.2 13.2-1.5 19.4 1.2 8.7 5.3 17.1 8.9 25.1" fill="#4a4ba7"/><path d="m-195.4 15.6c1.5.6 3.1 1.2 4.8 1.9 3.4 1.3 5.9 1.8 9.4-.2 1-.6 7.8-7 6.1-8.3 10.8 8.8 1.9 21.6-2.1 30.7-2.7 6.1-3.3 14.8-9.4 18.7-6.7 4.4-11.3-1.2-17.5-3.7-5.4-2.2-11.2-3.4-16.7-5.3-9.1-3.2-22.6-8.9-19.6-21 3.5-14.1 17.8-17.6 30.7-16.6 5.5.5 9.8 2 14.3 3.8" fill="#4a4ba7"/><path d="m-51.6 287.1-33.3-50.1v-170.2c0-3 3.9-4.2 5.5-1.7l27.8 41.8z" fill="#378497"/><path d="m-53.1 108.6-28.5-42.4-11.8 2.5 34.2 42.8v177.1l6.1-1.5z" fill="#bfedf3"/><path d="m-187.9 95.8 20.4-7.4 108.3 23.1v171.4l-128.7-23.2z" fill="#bfedf3"/><path d="m-68.3 292.4-126.3-17.5c-2.8-.6-4.8-3-4.8-5.9v-167.9c0-3.8 3.5-6.6 7.2-5.9l124 17v180.2z" fill="#378497"/><path d="m-51.6 107c-.3 1.3-3.5 3.2-7.6 4.6-4.5 1.5-8.4 1.8-9 .7h-.1v179.7.4.1c.5 1.2 4.5.9 9.1-.6s8-3.7 7.6-5z" fill="#378497"/><path d="m-93.4 68.7v35.5l34.2 7.3z" fill="#81adba"/><path d="m-59.2 111.5-98.6-25.6v4.6z" fill="#81adba"/><path d="m-184.5 240.8 104.1 14.4v23.3l-104.1-14.4z" fill="#bfedf3"/><path clip-path="url(#d)" d="m-194.6 274.9 126.3 17.5v-180.2s-16.6 136.8-126.3 162.7" fill="#272525" opacity=".080002"/><path d="m-120.4 222.9c-.2-.2-.5-.5-.8-.7-2.6-1.6-4.9-.8-7.9-1.6-1.3-.3-2.4-3.7-4.5-1.8-.8.7-2.4 2.7-4.1 4.2-2.4 2.2-6.8 3.6-10.4 4-14.4 1.7-28.9-.5-43.2-3.2-.8-.2-1.7-.3-2.3-.8-1.2-.9-1.3-2.6-1.5-4.1-.5-6.9-1.7-13.6-3.5-20.3-1.6-5.9-3.8-11.8-7.8-16.5-4-4.6-10.1-7.8-16.2-6.9-4.5.7-8.7 3.7-10.7 7.8-5.1 10.2 5.8 22.8 10.6 31.3 4.6 8 9.8 15.7 15.4 23 .7.9 1.4 1.8 2.4 2.4 1.1.6 2.3.7 3.5.8 15.6 1.3 31.2 1.2 46.9.7 4.3-.1 8-2.5 12-2.6 2.5 0 4.6 1.7 7 2.2s5.6.5 8 .1c4.7-.9 6.9-5.3 9.2-9 .6-.9 1-1.5 1-2.6.1-1.6-.8-3-1.6-4.3-.3-.6-.9-1.4-1.5-2.1" fill="#efbfa5"/><path d="m-222.1 210.1c9-1.9 18-3.9 27-5.8-.6.1-6.3-41.4-6.7-43.8-1.6-9.4-3.4-19.1-8.7-27-11.5-16.8-37.7-11.2-39.6 9.8-2.1 22.7 4.4 48.2 16.5 67.5.3.4.5.9 1 1.1.6.3 1.3.2 2 0 2.8-.6 5.7-1.2 8.5-1.8" fill="#acdae3"/><path d="m340.2-64.1h-28.4c-2.1 0-3.8-1.7-3.8-3.8v-24.4c0-2.1 1.7-3.8 3.8-3.8h28.4c2.1 0 3.8 1.7 3.8 3.8v24.4c0 2.1-1.7 3.8-3.8 3.8z" fill="#81adba"/><path d="m384.2-63.1h-28.4c-2.1 0-3.8-1.7-3.8-3.8v-24.4c0-2.1 1.7-3.8 3.8-3.8h28.4c2.1 0 3.8 1.7 3.8 3.8v24.4c0 2.1-1.7 3.8-3.8 3.8z" fill="#acdae3"/><path d="m340.2-24.1h-28.4c-2.1 0-3.8-1.7-3.8-3.8v-24.4c0-2.1 1.7-3.8 3.8-3.8h28.4c2.1 0 3.8 1.7 3.8 3.8v24.4c0 2.1-1.7 3.8-3.8 3.8z" fill="#3dafcb"/><path d="m346-57.1h49v38h-49z" fill="#bfedf3"/></svg>