<svg width="234" height="234" viewBox="0 0 234 234" fill="none" xmlns="http://www.w3.org/2000/svg">
<path d="M190.125 175.537H43.875C39.9974 175.533 36.2797 173.991 33.5378 171.249C30.796 168.507 29.2539 164.789 29.25 160.912V58.5366C29.2539 54.659 30.796 50.9413 33.5378 48.1994C36.2797 45.4575 39.9974 43.9155 43.875 43.9116H190.125C194.003 43.9155 197.72 45.4575 200.462 48.1994C203.204 50.9413 204.746 54.659 204.75 58.5366V160.912C204.744 164.789 203.201 168.505 200.46 171.247C197.719 173.988 194.002 175.531 190.125 175.537V175.537ZM43.875 58.5366V160.912H190.125V58.5366H43.875Z" fill="#3AB0CF"/>
<path d="M14.625 190.162H219.375V204.787H14.625V190.162Z" fill="#3AB0CF"/>
</svg>
