<svg width="800" height="800" viewBox="0 0 800 800" fill="none" xmlns="http://www.w3.org/2000/svg">
<path d="M510.863 304.504H281.567C276.913 304.51 272.451 306.344 269.16 309.604C265.87 312.863 264.018 317.283 264.012 321.893V435.705H299.3C301.881 435.698 304.421 436.343 306.68 437.581C308.939 438.818 310.841 440.605 312.208 442.774L324.439 462.061L336.134 480.488L338.329 483.953L351.709 505.036L351.862 505.276H528.418V321.893C528.412 317.283 526.56 312.863 523.269 309.604C519.979 306.344 515.517 304.51 510.863 304.504V304.504Z" fill="#CCCCCC"/>
<path d="M419.974 339.296H306.36C303.348 339.296 300.46 340.481 298.33 342.591C296.2 344.7 295.004 347.562 295.004 350.545C295.004 353.529 296.2 356.39 298.33 358.5C300.46 360.61 303.348 361.795 306.36 361.795H419.974C422.986 361.795 425.875 360.61 428.005 358.5C430.134 356.39 431.331 353.529 431.331 350.545C431.331 347.562 430.134 344.7 428.005 342.591C425.875 340.481 422.986 339.296 419.974 339.296Z" fill="white"/>
<path d="M482.98 394.538H307.395C304.107 394.538 300.954 395.832 298.629 398.135C296.304 400.438 294.998 403.562 294.998 406.819C294.998 410.076 296.304 413.199 298.629 415.502C300.954 417.805 304.107 419.099 307.395 419.099H482.98C486.268 419.099 489.421 417.805 491.746 415.502C494.07 413.199 495.376 410.076 495.376 406.819C495.376 403.562 494.07 400.438 491.746 398.135C489.421 395.832 486.268 394.538 482.98 394.538V394.538Z" fill="white"/>
<path d="M494.189 444.583C493.192 442.472 491.607 440.685 489.622 439.433C487.637 438.181 485.333 437.515 482.98 437.513H307.395C307.127 437.513 306.871 437.526 306.603 437.539C308.894 438.778 310.824 440.582 312.208 442.774L324.439 462.061H482.98C485.065 462.062 487.116 461.541 488.943 460.547C490.771 459.552 492.315 458.117 493.433 456.374C494.551 454.63 495.207 452.636 495.339 450.574C495.471 448.513 495.076 446.452 494.189 444.583V444.583Z" fill="white"/>
<path d="M495.249 491.112C494.845 488.171 493.38 485.475 491.124 483.522C488.869 481.569 485.976 480.491 482.98 480.488H336.134L338.329 483.953L351.709 505.036H482.98C485.559 505.042 488.075 504.24 490.168 502.747C491.775 501.612 493.086 500.114 493.989 498.376C494.893 496.638 495.365 494.711 495.364 492.756C495.365 492.206 495.327 491.656 495.249 491.112V491.112Z" fill="white"/>
<path d="M635.405 402.519L617.531 395.601L528.418 361.15L421.8 319.933C417.46 318.265 412.63 318.369 408.367 320.223C404.105 322.077 400.759 325.529 399.062 329.823L395.334 339.296L386.461 361.795L373.566 394.538L363.889 419.099L356.637 437.513L346.959 462.061L339.695 480.488L339.491 481.019L338.329 483.953L351.709 505.036L351.862 505.276H599.683C601.958 505.274 604.205 505.778 606.257 506.75C608.31 507.721 610.116 509.137 611.544 510.892L612.59 508.261L625.383 475.809L645.376 425.056C647.064 420.757 646.962 415.97 645.093 411.746C643.224 407.521 639.74 404.203 635.405 402.519V402.519Z" fill="#ABDEE7"/>
<path d="M537.967 402.19L528.418 398.497L432.129 361.276C429.321 360.2 426.197 360.267 423.439 361.464C420.681 362.66 418.513 364.889 417.408 367.663C416.32 370.446 416.388 373.543 417.599 376.275C418.81 379.008 421.064 381.155 423.868 382.245L455.671 394.538L495.006 409.74L528.418 422.665L529.707 423.159C532.512 424.238 535.636 424.17 538.391 422.97C541.146 421.77 543.308 419.536 544.402 416.759C545.497 413.981 545.434 410.887 544.227 408.156C543.021 405.424 540.769 403.279 537.967 402.19V402.19Z" fill="white"/>
<path d="M576.371 476.352L528.418 457.812L494.189 444.583L475.907 437.513L428.286 419.099L412.812 413.117C409.926 412.001 406.722 411.995 403.832 413.103C400.942 414.21 398.575 416.349 397.198 419.099C397.045 419.415 396.892 419.744 396.764 420.085C396.172 421.587 395.884 423.189 395.918 424.801C395.951 426.412 396.304 428.001 396.957 429.478C397.611 430.954 398.551 432.288 399.725 433.404C400.899 434.521 402.283 435.397 403.799 435.983L407.756 437.513L471.234 462.061L528.418 484.168L567.357 499.231C568.789 499.785 570.314 500.068 571.851 500.066C574.743 500.071 577.545 499.074 579.773 497.248C582 495.422 583.513 492.882 584.05 490.068C584.586 487.253 584.112 484.342 582.71 481.837C581.307 479.332 579.065 477.392 576.371 476.352H576.371Z" fill="white"/>
<path d="M528.418 503.936L525.341 502.747L495.249 491.112L467.761 480.488L420.089 462.061L397.032 453.145C395.515 452.557 393.896 452.271 392.267 452.304C390.638 452.336 389.032 452.686 387.54 453.334C386.049 453.982 384.7 454.915 383.572 456.079C382.445 457.244 381.56 458.617 380.968 460.121C380.377 461.624 380.091 463.228 380.125 464.842C380.16 466.455 380.516 468.045 381.172 469.523C381.828 471 382.771 472.334 383.948 473.449C385.125 474.565 386.513 475.44 388.031 476.024L399.573 480.488L457.151 502.747L463.076 505.036L463.688 505.276H531.877L528.418 503.936Z" fill="white"/>
<path d="M411.944 505.036L406.02 502.747L381.265 493.173C379.535 492.502 377.675 492.225 375.823 492.363C373.971 492.501 372.174 493.05 370.565 493.97C368.956 494.889 367.577 496.155 366.529 497.675C365.482 499.194 364.793 500.928 364.514 502.747C364.391 503.504 364.344 504.27 364.374 505.036C364.371 505.116 364.376 505.197 364.387 505.276H412.569L411.944 505.036Z" fill="white"/>
<path d="M463.076 505.036L457.152 502.747H364.514C364.391 503.504 364.344 504.27 364.374 505.036H351.709L351.862 505.276H463.688L463.076 505.036ZM463.076 505.036H351.709L351.862 505.276H463.688L463.076 505.036ZM463.076 505.036H351.709L351.862 505.276H463.688L463.076 505.036ZM463.688 505.276L463.076 505.036H351.709L351.862 505.276H463.688ZM240.253 758.535C236.212 758.529 232.338 756.936 229.481 754.105C226.623 751.274 225.015 747.437 225.009 743.434V450.818C225.012 446.813 226.619 442.973 229.477 440.14C232.334 437.306 236.21 435.711 240.253 435.705H264.012V433.175H240.253C235.533 433.184 231.01 435.046 227.674 438.353C224.337 441.66 222.461 446.143 222.456 450.818V743.434C222.46 746.816 223.445 750.126 225.294 752.969C227.143 755.812 229.779 758.069 232.886 759.471H457.815C457.612 759.167 457.407 758.851 457.203 758.535H240.253ZM612.59 508.261C610.932 506.518 608.932 505.13 606.712 504.182C604.492 503.234 602.1 502.745 599.683 502.747H353.279L339.491 481.019L339.159 480.488L327.464 462.061L314.365 441.421C312.76 438.9 310.537 436.822 307.903 435.38C305.269 433.938 302.31 433.18 299.3 433.175H240.253C235.533 433.184 231.01 435.046 227.674 438.353C224.337 441.66 222.461 446.143 222.456 450.818V743.434C222.46 746.816 223.445 750.126 225.294 752.969C227.143 755.812 229.779 758.069 232.886 759.471C235.196 760.524 237.71 761.068 240.253 761.064H599.683C602.23 761.068 604.748 760.524 607.063 759.471C610.17 758.069 612.805 755.812 614.654 752.969C616.504 750.126 617.489 746.816 617.493 743.434V520.39C617.496 515.872 615.74 511.528 612.59 508.261V508.261ZM614.94 743.434C614.933 747.439 613.323 751.278 610.463 754.109C607.603 756.939 603.726 758.531 599.683 758.535H240.253C236.212 758.529 232.338 756.936 229.481 754.105C226.623 751.274 225.015 747.437 225.009 743.434V450.818C225.012 446.813 226.619 442.973 229.477 440.14C232.334 437.306 236.21 435.711 240.253 435.705H299.3C301.881 435.698 304.421 436.343 306.68 437.581C308.939 438.818 310.841 440.605 312.208 442.774L324.439 462.061L336.133 480.488L338.329 483.953L351.709 505.036L351.862 505.276H599.683C603.728 505.28 607.607 506.873 610.467 509.707C613.328 512.54 614.936 516.382 614.94 520.39V743.434ZM463.076 505.036H351.709L351.862 505.276H463.688L463.076 505.036ZM463.076 505.036H351.709L351.862 505.276H463.688L463.076 505.036ZM463.076 505.036H351.709L351.862 505.276H463.688L463.076 505.036ZM463.076 505.036L457.152 502.747H353.279L339.491 481.019L338.329 483.953L351.709 505.036L351.862 505.276H463.688L463.076 505.036Z" fill="#7571A7"/>
<path d="M170.35 609.946L163.037 625.092L100.585 604.358L111.377 582.005L170.35 609.946Z" fill="#FFB8B8"/>
<path d="M152.767 635.247L167.549 604.631L186.114 613.427L163.131 661.028L161.712 660.355C157.164 658.201 153.667 654.345 151.99 649.636C150.312 644.927 150.592 639.751 152.767 635.247V635.247Z" fill="#2F2E41"/>
<path d="M185.072 745.2L168.134 744.634L167.42 679.319L187.277 680.48L185.072 745.2Z" fill="#FFB8B8"/>
<path d="M154.626 739.383L188.865 740.527L188.171 760.902L134.936 759.122L134.989 757.564C135.159 752.574 137.324 747.855 141.006 744.445C144.689 741.035 149.588 739.214 154.626 739.383Z" fill="#2F2E41"/>
<path d="M212.35 471.85C212.35 471.85 160.509 458.841 137.008 478.013L123.875 515.672L71.3433 589.621L147.376 634.812L161.2 600.577L128.022 584.144L168.112 549.908L161.2 730.672L187.466 734.781C187.466 734.781 245.527 511.564 212.35 471.85Z" fill="#2F2E41"/>
<path d="M133.7 483.583L134.332 482.47C140.993 470.74 139.913 451.639 137.835 437.682C136.095 425.991 136.147 405.388 136.497 390.162C136.584 385.023 138.434 380.066 141.744 376.108C145.053 372.149 149.624 369.424 154.705 368.382C170.476 365.131 189.836 364.443 199.974 364.321L199.982 365.006L199.974 364.321C202.728 364.31 205.377 365.369 207.352 367.271C209.327 369.172 210.471 371.765 210.539 374.493C210.847 390.888 210.752 420.787 206.644 436.828C200.548 460.637 210.081 476.816 210.178 476.976L210.753 477.929L133.7 483.583Z" fill="#ABDEE7"/>
<path d="M107.034 549.244C108.721 548.443 110.211 547.286 111.398 545.853C112.585 544.421 113.441 542.747 113.905 540.952C114.369 539.156 114.429 537.282 114.083 535.46C113.736 533.639 112.991 531.915 111.899 530.41L141.155 405.433H119.037L93.2161 527.946C90.7853 529.931 89.1739 532.73 88.6872 535.814C88.2006 538.897 88.8725 542.05 90.5757 544.675C92.2789 547.3 94.895 549.215 97.9283 550.057C100.962 550.899 104.201 550.61 107.034 549.244Z" fill="#FFB8B8"/>
<path d="M284.926 426.224L236.102 380.472L222.906 398.773L255.896 427.531L212.632 461.565C212.319 461.544 212.008 461.517 211.69 461.517C209.028 461.515 206.421 462.272 204.182 463.699C201.943 465.125 200.166 467.161 199.064 469.561C197.962 471.962 197.581 474.626 197.968 477.236C198.354 479.845 199.491 482.289 201.243 484.275C202.995 486.261 205.288 487.704 207.846 488.433C210.405 489.162 213.121 489.146 215.67 488.386C218.22 487.625 220.494 486.154 222.221 484.147C223.948 482.14 225.055 479.682 225.409 477.068L225.545 477.204L284.926 426.224Z" fill="#FFB8B8"/>
<path d="M151.599 369.989C151.599 369.989 121.11 365.035 118.346 388.315C115.581 411.596 114.198 411.596 114.198 411.596C114.198 411.596 136.317 407.487 141.847 412.965C147.376 418.443 151.599 369.989 151.599 369.989Z" fill="#ABDEE7"/>
<path d="M197.143 366.404C197.143 366.404 222.027 362.296 233.086 373.252C244.145 384.207 249.675 386.946 249.675 386.946C249.675 386.946 224.791 400.64 234.468 412.965C234.468 412.965 208.202 400.64 204.055 404.748C199.908 408.857 197.143 366.404 197.143 366.404Z" fill="#ABDEE7"/>
<path d="M175.318 286.899C167.469 280.689 165.407 268.704 169.961 259.835C174.515 250.965 184.811 245.622 194.848 246.021C204.885 246.42 214.343 252.128 220.158 260.242C228.326 271.64 230.04 287.482 240.901 296.405C250.711 304.465 264.765 304.234 277.493 303.593C281.784 303.377 286.213 303.126 290.063 301.238C293.914 299.35 297.059 295.367 296.563 291.139C299.761 296.154 297.905 303.185 293.615 307.322C289.325 311.459 283.216 313.193 277.27 313.883C266.778 314.975 256.181 313.342 246.521 309.143C236.86 304.944 228.471 298.325 222.178 289.938C217.749 283.886 214.332 276.839 208.254 272.407C202.177 267.976 192.045 267.668 188.314 274.165C186.469 277.379 186.65 281.41 184.953 284.703C183.256 287.996 177.746 289.771 176.112 286.447" fill="#2F2E41"/>
<path d="M174.118 352.938C195.271 352.938 212.419 335.951 212.419 314.997C212.419 294.043 195.271 277.056 174.118 277.056C152.965 277.056 135.817 294.043 135.817 314.997C135.817 335.951 152.965 352.938 174.118 352.938Z" fill="#2F2E41"/>
<path d="M732.17 711.302C732.03 727.368 730.854 743.409 728.65 759.323C728.573 759.882 728.489 760.441 728.411 761L578.06 760.159C577.619 759.604 577.184 759.042 576.763 758.474C575.359 756.593 574.044 754.658 572.836 752.657C567.031 743.015 564.374 731.726 567.037 723.937L567.084 723.816C567.659 722.111 568.565 720.536 569.75 719.181C575.822 712.342 588.098 713.482 599.239 719.003C589.247 708.057 581.29 694.245 580.685 681.916C580.093 669.891 586.376 661.301 593.191 654C593.415 653.759 593.638 653.524 593.862 653.289C593.971 653.169 594.086 653.055 594.194 652.934C599.511 647.371 605.71 641.886 614.683 642.55C624.524 643.279 635.434 651.527 643.084 661.139C650.734 670.744 655.818 681.656 660.97 692.305C666.13 702.947 671.712 713.862 679.991 722.958C668.777 708.764 659.736 692.615 656.397 676.908C653.057 661.202 655.996 646.116 665.99 638.719C669.024 636.543 672.535 635.125 676.229 634.585C676.66 634.513 677.098 634.455 677.543 634.404C686.794 633.35 697.84 636.552 707.239 644.206C717.589 652.634 724.765 665.127 728.335 676.987C731.905 688.847 732.286 700.265 732.17 711.302Z" fill="#F2F2F2"/>
<path d="M633.802 760.471L630.927 760.455C630.014 759.884 629.097 759.319 628.175 758.762C627.605 758.401 627.028 758.054 626.45 757.701C616.914 751.872 607.318 746.282 597.662 740.929C588.015 735.571 578.32 730.461 568.576 725.597C568.318 725.485 568.107 725.285 567.98 725.033C567.854 724.781 567.82 724.493 567.883 724.218C567.894 724.182 567.91 724.148 567.931 724.118C568.067 723.862 568.371 723.756 568.814 723.974C570.009 724.574 571.211 725.174 572.407 725.787C582.177 730.734 591.906 735.928 601.592 741.368C611.272 746.807 620.897 752.485 630.467 758.404C630.668 758.526 630.869 758.655 631.071 758.778C631.983 759.342 632.889 759.907 633.802 760.471Z" fill="white"/>
<path d="M670.871 760.678L669.094 760.668C668.693 760.107 668.298 759.545 667.897 758.984C658.477 745.763 649.058 732.543 639.641 719.323C624.22 697.679 608.803 676.036 593.391 654.392C593.3 654.276 593.232 654.142 593.191 654C593.059 653.521 593.411 653.24 593.862 653.289C594.052 653.317 594.234 653.384 594.396 653.487C594.558 653.59 594.696 653.727 594.801 653.888C603.447 666.025 612.091 678.159 620.733 690.287C636.074 711.823 651.412 733.356 666.749 754.887C667.724 756.253 668.7 757.627 669.675 758.994C670.076 759.555 670.477 760.117 670.871 760.678Z" fill="white"/>
<path d="M710.478 750.347C710.387 753.345 710.189 756.296 709.93 759.219C709.879 759.778 709.829 760.337 709.779 760.896L707.914 760.885C707.971 760.326 708.028 759.767 708.078 759.208C708.472 754.985 708.752 750.715 708.79 746.328C708.839 734.166 707.655 722.03 705.255 710.107C702.703 697.27 699.04 684.679 694.306 672.477C689.338 659.608 683.348 647.158 676.393 635.246C676.262 635.052 676.204 634.818 676.229 634.585C676.306 634.053 677.013 633.895 677.543 634.404C677.647 634.503 677.737 634.617 677.81 634.742C678.67 636.223 679.515 637.708 680.344 639.197C687.042 651.175 692.775 663.669 697.489 676.558C701.979 688.8 705.394 701.41 707.696 714.245C709.852 726.152 710.784 738.249 710.478 750.347V750.347Z" fill="white"/>
<path d="M173.887 355.908C191.205 355.908 205.244 342.001 205.244 324.846C205.244 307.69 191.205 293.783 173.887 293.783C156.569 293.783 142.53 307.69 142.53 324.846C142.53 342.001 156.569 355.908 173.887 355.908Z" fill="#FFB8B8"/>
<path d="M145.295 302.032C149.557 302.956 148.162 310.037 151.53 312.784C154.567 315.262 158.942 312.714 162.765 311.792C167.592 310.627 172.645 312.333 177.101 314.508C181.558 316.683 185.855 319.383 190.716 320.396C195.578 321.409 201.342 320.267 204.067 316.152C206.673 312.218 205.714 306.912 203.675 302.662C201.14 297.377 197.162 292.902 192.191 289.742C187.221 286.582 181.456 284.864 175.55 284.783C169.644 284.702 163.834 286.261 158.776 289.283C153.719 292.305 149.617 296.67 146.936 301.883" fill="#2F2E41"/>
<path d="M744 761C743.999 760.735 743.896 760.481 743.714 760.294C743.531 760.106 743.283 760.001 743.025 760H46.9749C46.7163 760 46.4684 760.105 46.2855 760.293C46.1027 760.48 46 760.735 46 761C46 761.265 46.1027 761.52 46.2855 761.707C46.4684 761.895 46.7163 762 46.9749 762H743.025C743.283 761.999 743.531 761.894 743.714 761.706C743.896 761.519 743.999 761.265 744 761V761Z" fill="#3F3D56"/>
<path d="M531.971 122H228V180.015H531.971V122Z" fill="#E6E6E6"/>
<path d="M234.48 173.534H525.491V128.48H234.48V173.534Z" fill="white"/>
<path d="M259.956 167.544C269.856 167.544 277.882 159.966 277.882 150.618C277.882 141.269 269.856 133.691 259.956 133.691C250.055 133.691 242.029 141.269 242.029 150.618C242.029 159.966 250.055 167.544 259.956 167.544Z" fill="#ABDEE7"/>
<path d="M479.75 144.603H302.824V146.5H479.75V144.603Z" fill="#ABDEE7"/>
<path d="M479.75 154.735H302.824V156.632H479.75V154.735Z" fill="#ABDEE7"/>
<path d="M614.399 330.389L586.741 385.145L504.04 422.742C495.209 437.667 467.145 438.809 465.104 429.158C462.814 418.33 499.183 400.902 499.183 400.902L568.355 354.115L574.408 313.838L614.399 330.389Z" fill="#A0616A"/>
<path d="M611.137 697.845L616.237 738.651L586.653 740.692L583.593 697.845H611.137Z" fill="#A0616A"/>
<path d="M607.056 732.531C609.7 729.734 612.14 726.75 614.356 723.603C618.596 717.736 622.358 747.833 622.358 747.833C622.358 747.833 626.439 760.075 625.418 766.196C624.398 772.317 600.935 772.317 596.854 771.297C592.774 770.276 572.371 771.297 572.371 771.297H541.766C515.242 759.055 541.766 750.894 541.766 750.894C549.927 749.873 577.471 724.37 577.471 724.37L583.592 713.148C587.673 712.128 591.753 727.43 591.753 727.43L607.056 732.531Z" fill="#2F2E41"/>
<path d="M687.647 698.355L692.749 739.161L663.164 741.202L660.103 698.355H687.647Z" fill="#A0616A"/>
<path d="M683.567 733.041C686.212 730.244 688.652 727.261 690.868 724.113C695.108 718.246 698.87 748.343 698.87 748.343C698.87 748.343 702.95 759.565 701.93 765.686C700.91 771.807 677.446 771.807 673.366 770.787C669.285 769.766 648.882 771.807 648.882 771.807H618.278C591.754 759.565 618.278 751.404 618.278 751.404C626.439 750.383 653.983 724.88 653.983 724.88L660.104 713.658C664.185 712.638 668.265 727.94 668.265 727.94L683.567 733.041Z" fill="#2F2E41"/>
<path d="M653.982 435.157C658.063 440.257 656.023 457.6 656.023 457.6C656.023 457.6 663.164 513.708 660.103 518.809C657.043 523.91 662.143 527.991 665.204 535.132C668.264 542.273 671.325 559.615 671.325 559.615C688.668 573.897 687.647 639.187 687.647 639.187L693.768 697.336C691.728 703.457 663.164 704.477 659.083 703.457C655.002 702.436 642.761 610.623 642.761 610.623L615.216 558.595C615.216 558.595 617.257 697.336 617.257 703.457C617.257 709.578 589.713 706.517 583.592 706.517C577.471 706.517 577.471 604.502 577.471 604.502L571.35 577.978L538.705 456.58V442.298L543.806 435.157C543.806 435.157 649.902 430.056 653.982 435.157Z" fill="#2F2E41"/>
<path d="M609.096 203.582C626.562 203.582 640.721 189.423 640.721 171.957C640.721 154.491 626.562 140.333 609.096 140.333C591.63 140.333 577.471 154.491 577.471 171.957C577.471 189.423 591.63 203.582 609.096 203.582Z" fill="#A0616A"/>
<path d="M593.284 186.749C599.694 201.024 595.898 220.962 583.082 242.858L635.11 218.374L626.949 211.233L628.989 190.83L593.284 186.749Z" fill="#A0616A"/>
<path d="M593.284 219.394C586.471 223.445 582.396 230.887 580.056 238.46C575.725 252.48 573.117 266.976 572.292 281.628L569.821 325.49L539.216 441.788C565.74 464.231 581.043 459.13 616.748 440.767C652.453 422.405 656.534 446.888 656.534 446.888C656.534 446.888 659.594 445.868 656.534 442.808C653.473 439.747 656.534 442.808 659.594 439.747C662.655 436.687 659.594 439.747 658.574 436.687C657.554 433.626 658.574 435.667 659.594 434.646C660.614 433.626 655.514 424.445 655.514 424.445L663.675 347.933L673.876 239.797C661.635 224.495 626.949 211.233 626.949 211.233L595.325 233.676C585.123 237.757 593.284 221.435 593.284 221.435V219.394Z" fill="#ABDEE7"/>
<path d="M690.709 304.577L694.789 365.786L642.761 440.257C642.761 457.6 633.58 461.68 633.58 461.68C630.103 456.13 627.034 450.334 624.399 444.338C619.298 433.116 627.459 423.935 627.459 423.935L663.165 348.444L647.862 310.698L690.709 304.577Z" fill="#A0616A"/>
<path d="M673.366 240.307C690.708 246.428 693.769 312.738 693.769 312.738C673.366 301.517 648.882 319.879 648.882 319.879C648.882 319.879 643.781 302.537 637.66 280.093C635.812 273.78 635.591 267.102 637.018 260.681C638.445 254.26 641.474 248.304 645.822 243.368C645.822 243.368 656.023 234.186 673.366 240.307Z" fill="#ABDEE7"/>
<path d="M638.171 181.649C634.145 178.428 628.652 184.282 628.652 184.282L625.432 155.295C625.432 155.295 605.302 157.711 592.419 154.49C579.535 151.269 577.522 166.165 577.522 166.165C576.858 160.15 576.724 154.088 577.12 148.048C577.925 140.802 588.393 133.555 606.912 128.724C625.432 123.893 635.094 144.828 635.094 144.828C647.977 151.269 642.197 184.869 638.171 181.649Z" fill="#2F2E41"/>
</svg>
