<svg width="1400" height="500" viewBox="0 0 1400 500" fill="none" xmlns="http://www.w3.org/2000/svg">
<g clip-path="url(#clip0)">
<g clip-path="url(#clip1)">
<path fill-rule="evenodd" clip-rule="evenodd" d="M814.222 383.592C758.842 424.411 678.572 446.19 609.46 446.19C512.554 446.19 425.315 410.348 359.314 350.737C354.129 346.049 358.775 339.661 364.997 343.311C436.225 384.753 524.294 409.685 615.268 409.685C676.622 409.685 744.115 396.991 806.174 370.649C815.549 366.666 823.39 376.788 814.222 383.592" fill="#FF9900"/>
<path fill-rule="evenodd" clip-rule="evenodd" d="M837.246 357.25C830.194 348.206 790.452 352.977 772.614 355.093C767.18 355.756 766.351 351.028 771.245 347.625C802.897 325.349 854.835 331.779 860.891 339.246C866.948 346.755 859.315 398.816 829.571 423.665C825.008 427.481 820.652 425.448 822.685 420.387C829.364 403.711 844.34 366.335 837.246 357.25" fill="#FF9900"/>
<path fill-rule="evenodd" clip-rule="evenodd" d="M773.859 190.361V168.707C773.859 165.43 776.348 163.231 779.335 163.231H876.282C879.393 163.231 881.882 165.471 881.882 168.707V187.251C881.84 190.361 879.227 194.427 874.581 200.857L824.345 272.582C843.012 272.125 862.717 274.905 879.642 284.446C883.459 286.604 884.495 289.756 884.786 292.867V315.973C884.786 319.127 881.301 322.819 877.651 320.91C847.824 305.271 808.208 303.57 775.228 321.076C771.868 322.902 768.342 319.251 768.342 316.098V294.153C768.342 290.627 768.383 284.612 771.909 279.261L830.111 195.796H779.459C776.348 195.796 773.859 193.598 773.859 190.361V190.361ZM420.213 325.474H390.718C387.897 325.266 385.657 323.15 385.449 320.453V169.081C385.449 166.052 387.98 163.647 391.132 163.647H418.636C421.498 163.771 423.78 165.969 423.988 168.707V188.495H424.527C431.703 169.371 445.185 160.452 463.355 160.452C481.815 160.452 493.348 169.371 501.645 188.495C508.78 169.371 525 160.452 542.382 160.452C554.743 160.452 568.267 165.555 576.522 177.004C585.856 189.739 583.948 208.242 583.948 224.462L583.906 319.998C583.906 323.026 581.376 325.474 578.223 325.474H548.77C545.825 325.266 543.46 322.901 543.46 319.998V239.769C543.46 233.38 544.041 217.45 542.63 211.394C540.432 201.23 533.836 198.368 525.29 198.368C518.155 198.368 510.688 203.138 507.659 210.772C504.632 218.405 504.922 231.181 504.922 239.769V319.998C504.922 323.026 502.391 325.474 499.238 325.474H469.785C466.798 325.266 464.475 322.901 464.475 319.998L464.434 239.769C464.434 222.884 467.213 198.037 446.264 198.037C425.066 198.037 425.896 222.262 425.896 239.769V319.998C425.896 323.026 423.365 325.474 420.213 325.474V325.474ZM965.347 160.452C1009.11 160.452 1032.8 198.036 1032.8 245.825C1032.8 291.996 1006.62 328.626 965.346 328.626C922.37 328.626 898.973 291.042 898.973 244.208C898.973 197.082 922.66 160.452 965.347 160.452V160.452ZM965.596 191.358C943.858 191.358 942.489 220.977 942.489 239.437C942.489 257.939 942.2 297.431 965.347 297.431C988.205 297.431 989.283 265.572 989.283 246.157C989.283 233.38 988.743 218.115 984.885 206.001C981.567 195.465 974.971 191.357 965.597 191.357L965.596 191.358ZM1089.55 325.474H1060.18C1057.23 325.266 1054.87 322.901 1054.87 319.998L1054.83 168.583C1055.07 165.803 1057.52 163.647 1060.51 163.647H1087.85C1090.42 163.771 1092.54 165.513 1093.12 167.878V191.026H1093.66C1101.91 170.325 1113.48 160.452 1133.85 160.452C1147.09 160.452 1159.99 165.223 1168.28 178.29C1176 190.402 1176 210.772 1176 225.416V320.703C1175.67 323.358 1173.22 325.474 1170.32 325.474H1140.74C1138.04 325.266 1135.8 323.275 1135.51 320.703V238.482C1135.51 221.93 1137.42 197.704 1117.05 197.704C1109.88 197.704 1103.28 202.517 1100 209.817C1095.85 219.069 1095.31 228.277 1095.31 238.483V319.998C1095.27 323.026 1092.7 325.474 1089.55 325.474V325.474ZM696.575 253.168C696.575 264.659 696.866 274.242 691.057 284.446C686.371 292.743 678.904 297.845 670.648 297.845C659.323 297.845 652.686 289.217 652.686 276.481C652.686 251.343 675.212 246.779 696.575 246.779V253.168V253.168ZM726.318 325.058C724.369 326.8 721.549 326.926 719.35 325.764C709.56 317.634 707.776 313.858 702.425 306.1C686.246 322.611 674.755 327.548 653.806 327.548C628.957 327.548 609.667 312.24 609.667 281.584C609.667 257.648 622.61 241.345 641.112 233.38C657.125 226.328 679.484 225.084 696.576 223.134V219.317C696.576 212.306 697.115 204.01 692.966 197.953C689.399 192.519 682.512 190.278 676.415 190.278C665.172 190.278 655.175 196.044 652.728 207.992C652.229 210.647 650.279 213.261 647.583 213.386L619.001 210.315C616.596 209.776 613.899 207.826 614.604 204.134C621.159 169.454 652.52 159 680.564 159C694.917 159 713.667 162.817 724.993 173.686C739.345 187.085 737.976 204.963 737.976 224.42V270.383C737.976 284.198 743.702 290.254 749.094 297.721C750.962 300.376 751.376 303.57 748.97 305.561C742.955 310.581 732.252 319.915 726.361 325.141L726.32 325.058H726.318ZM309.908 253.168C309.908 264.659 310.199 274.242 304.39 284.446C299.703 292.743 292.277 297.845 283.981 297.845C272.656 297.845 266.059 289.217 266.059 276.481C266.059 251.343 288.585 246.779 309.908 246.779V253.168V253.168ZM339.651 325.058C337.702 326.8 334.881 326.926 332.683 325.764C322.893 317.634 321.149 313.858 315.757 306.1C299.578 322.611 288.13 327.548 267.138 327.548C242.332 327.548 223 312.24 223 281.584C223 257.648 235.985 241.345 254.444 233.38C270.457 226.328 292.817 225.084 309.908 223.134V219.317C309.908 212.306 310.447 204.01 306.34 197.953C302.731 192.519 295.845 190.278 289.788 190.278C278.547 190.278 268.508 196.044 266.059 207.992C265.562 210.647 263.612 213.261 260.957 213.386L232.334 210.314C229.927 209.775 227.273 207.825 227.937 204.133C234.532 169.454 265.853 159 293.896 159C308.248 159 326.999 162.817 338.324 173.686C352.677 187.085 351.308 204.963 351.308 224.42V270.383C351.308 284.198 357.033 290.254 362.426 297.721C364.335 300.376 364.749 303.57 362.343 305.561C356.328 310.581 345.625 319.915 339.735 325.141L339.652 325.058" fill="black"/>
</g>
</g>
<defs>
<clipPath id="clip0">
<rect width="1400" height="500" fill="white"/>
</clipPath>
<clipPath id="clip1">
<rect width="953" height="287.19" fill="white" transform="translate(223 159)"/>
</clipPath>
</defs>
</svg>
