<svg width="1400" height="500" viewBox="0 0 1400 500" fill="none" xmlns="http://www.w3.org/2000/svg">
<g clip-path="url(#clip0)">
<g clip-path="url(#clip1)">
<path d="M1242.79 156.66C1242.67 156.255 1242.55 155.85 1242.38 155.445C1146.42 155.486 1050.49 155.445 954.56 155.486C954.317 155.769 954.155 156.053 954.115 156.417C954.115 230.834 954.115 305.21 954.073 379.628C954.681 383.597 956.868 387.203 959.786 389.917C959.907 389.958 960.191 389.997 960.313 390.038C961.811 391.617 963.958 392.388 965.984 393.117C967.483 393.036 968.941 393.684 970.44 393.522H1089.54C1090.67 393.482 1091.85 393.684 1092.94 393.239C1092.98 393.078 1093.02 392.793 1093.06 392.631C1093.1 392.429 1093.14 391.983 1093.19 391.741C1095.74 377.481 1098.21 363.181 1100.92 348.922L1101.17 347.099C1090.15 347.058 1079.09 347.099 1068.07 347.058C1065.4 346.977 1062.64 347.058 1059.97 346.733C1055.39 346.531 1050.77 346.693 1046.19 346.247C1040.52 346.247 1034.89 345.72 1029.22 345.72C1024.76 345.275 1020.27 345.437 1015.77 345.235C1012.86 344.871 1009.86 345.032 1006.9 344.91C1002.08 344.384 997.178 344.749 992.358 344.222C987.253 344.263 982.149 343.817 977.045 343.695C977.085 343.654 977.126 343.492 977.126 343.452C978.827 343.492 980.488 343.371 982.19 343.331C985.957 342.844 989.765 343.169 993.532 342.642C997.462 342.642 1001.35 342.115 1005.28 342.115C1008.76 341.629 1012.29 341.913 1015.77 341.426C1019.86 341.426 1023.87 340.9 1027.97 340.859C1031.33 340.414 1034.73 340.657 1038.09 340.211C1042.02 340.251 1045.91 339.644 1049.84 339.685C1053.69 339.238 1057.62 339.359 1061.47 338.954C1061.1 337.457 1060.82 335.957 1060.5 334.458C1060.21 333.526 1059.08 333.729 1058.35 333.607C1049.56 332.35 1040.81 331.096 1032.06 329.881C1032.62 329.434 1033.39 329.637 1034.04 329.556C1040.85 329.029 1047.61 328.421 1054.42 327.936C1055.96 327.855 1057.46 327.571 1059 327.531C1058.31 325.424 1057.9 323.115 1056.97 321.171C1042.43 318.943 1027.88 316.958 1013.38 314.567C1017.15 313.96 1020.96 313.676 1024.73 313.271L1025.05 313.149C1037.08 311.893 1049.15 310.475 1061.18 309.301C1076.46 309.22 1091.69 309.26 1106.96 309.301C1107.45 309.22 1108.3 309.462 1108.38 308.774C1109.63 302.212 1110.85 295.65 1112.1 289.086C1113.85 279.972 1116.6 270.979 1120.85 262.674C1127.54 249.306 1138.11 237.963 1150.99 230.428C1163.02 223.38 1176.96 219.977 1190.82 219.329C1195.31 218.924 1199.85 219.045 1204.31 219.612C1207.22 220.301 1210.22 221.111 1212.53 223.096C1214.43 224.635 1215.57 226.904 1216.42 229.173C1218.28 234.56 1219.33 240.151 1220.23 245.782C1220.27 248.05 1220.67 250.602 1219.46 252.668C1218.32 254.694 1216.05 255.666 1213.91 256.274C1206.09 258.299 1197.91 256.395 1190.09 258.299C1183.65 259.677 1177.65 263.241 1173.56 268.386C1168.74 274.381 1166.19 281.834 1164.77 289.289C1163.67 295.933 1162.3 302.576 1161.2 309.261C1168.9 309.302 1176.64 309.22 1184.37 309.302C1187.45 309.302 1190.61 311.003 1191.87 313.919C1193.49 317.646 1193.12 321.86 1192.6 325.789C1191.95 330.205 1190.9 334.579 1188.91 338.63C1187.25 342.074 1184.5 345.234 1180.73 346.449C1178.78 347.219 1176.68 347.057 1174.61 347.057C1167.8 347.057 1161 347.137 1154.19 347.057C1153.1 352.04 1152.37 357.144 1151.4 362.208C1149.62 372.051 1147.88 381.936 1146.09 391.82C1146.05 392.145 1146.01 392.833 1146.01 393.198C1149.21 393.36 1152.41 393.198 1155.61 393.278C1179.35 393.278 1203.13 393.237 1226.91 393.278C1229.46 393.36 1232.05 392.752 1234.28 391.496C1235.62 391.01 1236.43 389.835 1237.6 389.187C1238.74 388.539 1239.06 387.203 1240.04 386.352C1241.09 384.488 1242.18 382.544 1242.26 380.356C1242.38 380.356 1242.71 380.315 1242.87 380.275C1242.75 305.737 1242.87 231.199 1242.79 156.66Z" fill="url(#paint0_linear)" stroke="#FCD109" stroke-width="0.0476715"/>
<path d="M991.87 107.643C995.314 106.55 998.919 107.279 1002.44 107.036C1068.6 107.076 1134.75 107.036 1200.9 107.036C1204.83 106.874 1208.27 109.102 1211.92 110.236C1214.84 111.411 1217.88 112.343 1220.79 113.598C1221.4 113.841 1221.85 114.368 1222.29 114.814C1222.25 120.161 1222.29 125.549 1222.29 130.937C1222.33 132.355 1222.09 133.813 1222.57 135.19C1223.43 135.312 1223.87 135.96 1224.44 136.487C1227.11 137.702 1229.38 139.687 1231.81 141.307C1235.46 143.9 1239.35 146.168 1242.91 148.842C1243.07 149.895 1242.95 150.989 1242.63 151.961C1242.26 153.096 1242.5 154.311 1242.38 155.445C1146.42 155.486 1050.49 155.445 954.56 155.486C954.357 154.149 954.722 152.812 954.155 151.556C954.074 150.503 953.709 149.126 954.722 148.396C958.773 145.561 963.067 143.009 967.036 140.011C969.508 138.431 971.897 136.811 974.287 135.19C974.773 134.38 974.611 133.367 974.611 132.476C974.611 126.602 974.611 120.728 974.652 114.854C976.029 113.072 978.42 112.869 980.323 111.978C984.173 110.52 988.062 109.102 991.87 107.643V107.643ZM992.113 108.332C986.928 110.317 981.702 112.221 976.517 114.206C975.828 114.328 975.463 114.935 975.099 115.462C975.14 115.786 975.18 116.353 975.18 116.677C975.139 121.538 975.18 126.4 975.139 131.261C975.18 132.476 975.017 133.691 975.463 134.785C974.936 135.312 974.37 135.838 973.721 136.243C967.847 140.051 962.176 144.183 956.302 147.951C955.289 148.559 954.155 149.369 954.479 150.706C954.276 151.435 954.641 152.042 955.411 151.84C968.131 151.759 980.81 151.921 993.531 151.718C1012.45 151.718 1031.33 151.759 1050.25 151.718L1050.53 151.597C1051.38 151.799 1052.23 151.718 1053.12 151.718C1087.39 151.718 1121.66 151.759 1155.98 151.718C1166.75 151.759 1177.57 151.718 1188.38 151.718C1206.21 151.718 1224.07 151.88 1241.9 151.799C1242.42 151.678 1242.59 151.313 1242.38 150.665C1242.34 150.017 1242.59 149.126 1241.9 148.721C1239.06 147.384 1236.63 145.318 1233.92 143.697C1232.95 142.887 1231.69 142.442 1230.96 141.348C1228.16 139.768 1225.57 137.823 1222.82 136.081C1222.29 135.757 1221.88 135.231 1221.44 134.785C1221.68 133.934 1221.76 133.003 1221.76 132.111C1221.72 126.967 1221.76 121.822 1221.72 116.677C1221.84 115.867 1221.8 114.935 1221.07 114.409C1216.21 112.667 1211.39 110.803 1206.57 109.021C1205.07 108.292 1203.41 107.886 1201.79 107.643H994.745C993.855 107.684 993.005 108.13 992.113 108.332V108.332Z" fill="#F8F3B5" stroke="#F8F3B5" stroke-width="0.0476715"/>
<path d="M975.18 116.677C978.745 118.176 982.552 119.027 986.158 120.485C988.103 121.255 988.71 123.361 989.561 125.063C988.71 125.913 987.697 126.602 986.684 127.25C982.957 129.762 979.149 132.192 975.463 134.785C975.017 133.691 975.18 132.476 975.139 131.261C975.18 126.4 975.139 121.538 975.18 116.677V116.677ZM1210.75 120.485C1214.35 119.067 1218.12 118.095 1221.72 116.677C1221.76 121.822 1221.72 126.967 1221.76 132.111C1221.76 133.003 1221.68 133.934 1221.44 134.785C1218.28 132.598 1215.08 130.532 1211.92 128.385C1210.38 127.25 1208.68 126.4 1207.3 125.022C1208.15 123.321 1208.8 121.255 1210.75 120.485V120.485Z" fill="#F7B402" stroke="#F7B402" stroke-width="0.0476715"/>
<path d="M1037 122.146C1041.45 121.093 1046.44 125.063 1046.07 129.721C1046.11 134.299 1041.29 138.026 1036.88 136.973C1035.09 136.365 1033.39 135.433 1032.3 133.853C1030.88 131.706 1030.56 128.83 1031.69 126.481C1032.5 124.212 1034.69 122.673 1037 122.146V122.146ZM1152.57 124.698C1154.44 122.632 1157.39 121.457 1160.15 122.186C1162.21 122.794 1164.24 124.131 1165.13 126.156C1166.91 129.64 1165.54 134.339 1162.05 136.162C1158.97 137.864 1155.08 137.054 1152.73 134.583C1150.34 131.868 1150.18 127.412 1152.57 124.698V124.698Z" fill="#BDA727" stroke="#BDA727" stroke-width="0.0476715"/>
<path d="M986.685 127.25C987.697 126.602 988.71 125.913 989.562 125.063L989.844 125.346C990.128 127.453 989.926 129.6 990.007 131.706C989.885 138.026 990.128 144.386 989.844 150.706C978.056 150.706 966.268 150.624 954.479 150.706C954.155 149.369 955.289 148.558 956.302 147.951C962.176 144.183 967.848 140.051 973.722 136.243C974.37 135.838 974.937 135.312 975.463 134.785C979.15 132.192 982.958 129.762 986.685 127.25V127.25ZM1206.9 126.44C1206.9 125.913 1207.02 125.468 1207.3 125.022C1208.68 126.399 1210.38 127.25 1211.92 128.384C1215.08 130.532 1218.28 132.598 1221.44 134.785C1221.89 135.231 1222.29 135.757 1222.82 136.081C1225.57 137.823 1228.16 139.768 1230.96 141.348C1231.69 142.441 1232.94 142.887 1233.92 143.697C1236.63 145.318 1239.06 147.384 1241.9 148.721C1242.59 149.126 1242.34 150.017 1242.38 150.665C1230.59 150.706 1218.85 150.624 1207.06 150.706C1206.86 149.085 1206.98 147.465 1206.94 145.885C1206.94 139.403 1206.86 132.922 1206.9 126.44V126.44Z" fill="#F7E62D" stroke="#F7E62D" stroke-width="0.0476715"/>
<path d="M1242.38 150.665C1230.59 150.706 1218.85 150.625 1207.06 150.706C1206.86 149.085 1206.98 147.465 1206.94 145.885C1206.94 139.403 1206.86 132.922 1206.9 126.44C1206.9 125.913 1207.02 125.468 1207.3 125.022C1208.15 123.321 1208.8 121.255 1210.74 120.485C1214.35 119.067 1218.12 118.095 1221.72 116.677C1221.85 115.867 1221.8 114.935 1221.07 114.409C1216.21 112.667 1211.39 110.803 1206.57 109.021C1205.07 108.292 1203.41 107.886 1201.79 107.643H994.745C993.854 107.684 993.003 108.129 992.112 108.332C986.926 110.317 981.701 112.221 976.515 114.206C975.827 114.328 975.461 114.935 975.098 115.462C975.138 115.786 975.179 116.353 975.179 116.677C978.743 118.176 982.551 119.027 986.157 120.485C988.101 121.255 988.709 123.361 989.56 125.063L989.842 125.346C990.126 127.453 989.923 129.6 990.004 131.706C989.883 138.026 990.126 144.386 989.842 150.706C978.054 150.706 966.266 150.625 954.477 150.706C954.275 151.435 954.639 152.042 955.409 151.84C968.129 151.759 980.809 151.921 993.53 151.718C1012.45 151.718 1031.33 151.759 1050.24 151.718L1050.53 151.597C1051.38 151.799 1052.23 151.718 1053.12 151.718C1087.39 151.718 1121.66 151.759 1155.97 151.718C1166.75 151.759 1177.57 151.718 1188.38 151.718C1206.21 151.718 1224.07 151.88 1241.9 151.799C1242.42 151.678 1242.59 151.313 1242.38 150.665V150.665ZM1031.69 126.481C1032.5 124.212 1034.69 122.673 1037 122.146C1041.45 121.093 1046.44 125.063 1046.07 129.721C1046.11 134.299 1041.29 138.026 1036.88 136.973C1035.09 136.365 1033.39 135.433 1032.3 133.853C1030.88 131.706 1030.56 128.83 1031.69 126.481ZM1152.57 124.698C1154.44 122.632 1157.39 121.457 1160.15 122.186C1162.21 122.794 1164.24 124.131 1165.13 126.156C1166.91 129.64 1165.54 134.339 1162.05 136.162C1158.97 137.864 1155.08 137.054 1152.73 134.583C1150.34 131.868 1150.18 127.412 1152.57 124.698Z" fill="url(#paint1_radial)" stroke="#FCD109" stroke-width="0.0476715"/>
<path d="M1162.9 168.468C1163.46 168.589 1159.95 165.087 1160.63 164.925C1161.28 165.006 1163.74 163.098 1166.71 164.654C1169.68 166.211 1168.94 169.853 1168.61 171.204C1168.21 172.811 1167.18 173.837 1166.37 174.647C1165.93 175.012 1164.93 175.579 1164.32 175.538C1164.69 173.553 1163.51 173.229 1163.43 171.204L1162.9 168.468Z" fill="url(#paint2_linear)" stroke="#FCD109" stroke-width="0.0476715"/>
<path d="M1033.4 170.664C1033.32 172.689 1032.14 173.013 1032.51 174.998C1031.9 175.039 1030.9 174.472 1030.46 174.107C1029.65 173.297 1028.62 172.271 1028.22 170.664C1027.88 169.313 1027.15 165.671 1030.12 164.114C1033.09 162.558 1035.55 164.465 1036.19 164.385C1036.88 164.547 1033.36 168.049 1033.93 167.928L1033.4 170.664Z" fill="url(#paint3_linear)" stroke="#FCD109" stroke-width="0.0476715"/>
<path d="M1157.6 194.418C1158.2 193.889 1158.61 193.889 1159.42 193.889C1154.56 204.422 1148.89 214.954 1140.36 223.155C1139.45 223.969 1138.48 224.724 1137.48 225.415C1136.5 226.129 1135.54 226.799 1134.59 227.481C1133.66 228.128 1132.73 228.779 1131.83 229.457C1129.52 230.713 1127.5 232.456 1124.95 233.225C1120.29 235.453 1115.26 236.952 1110.2 238.005C1108.22 238.33 1106.19 238.815 1104.16 238.856C1101.65 239.585 1098.98 239.058 1096.43 239.22C1095.01 239.463 1093.75 238.653 1092.38 238.815C1091.18 238.646 1089.99 238.444 1088.8 238.207C1087.6 237.962 1086.41 237.678 1085.22 237.357C1066.65 231.564 1048.42 217.385 1043.11 198.21C1042.87 196.918 1042.75 195.608 1042.75 194.294C1043.32 195.429 1043.91 196.555 1044.51 197.67C1052.07 214.144 1067.06 227.107 1084.76 231.016C1086.2 231.672 1087.76 231.442 1089.14 232.009C1090.39 232.009 1091.61 231.969 1092.82 232.374C1096.99 232.454 1101.17 232.414 1105.34 232.414C1105.91 232.455 1106.43 232.171 1107 232.05C1113.95 231.814 1120.77 229.917 1127.11 227.041C1128.38 226.466 1129.63 225.851 1130.86 225.203C1131.94 224.637 1132.99 224.024 1134.01 223.365C1135.01 222.718 1135.99 222.029 1136.93 221.3C1144.43 215.36 1150.91 207.663 1155.31 198.812C1156.15 197.219 1156.92 195.744 1157.6 194.418Z" fill="#BDA727" stroke="#BDA727" stroke-width="0.0476715"/>
<path d="M1150.99 230.429C1163.02 223.381 1176.96 219.978 1190.81 219.33C1195.31 218.924 1199.85 219.046 1204.3 219.613C1207.22 220.302 1210.22 221.112 1212.53 223.097C1211.35 223.178 1210.22 222.651 1209.04 222.489C1205.72 221.841 1202.28 222.084 1198.92 222.003C1189.15 222.003 1179.31 222.773 1169.87 225.447C1164.93 226.945 1159.99 228.687 1155.49 231.28C1147.71 235.574 1140.7 241.246 1135.03 248.051C1124.9 259.678 1118.95 274.423 1116.07 289.453C1114.7 297.514 1113.12 305.534 1111.86 313.636C1109.84 313.839 1107.77 313.718 1105.74 313.718C1096.83 313.677 1087.92 313.636 1079.01 313.556C1077.1 313.636 1075.24 313.192 1073.34 313.312C1057.13 313.393 1040.93 313.272 1024.72 313.272L1025.05 313.15C1037.08 311.893 1049.15 310.475 1061.18 309.302C1076.45 309.221 1091.69 309.26 1106.96 309.302C1107.44 309.221 1108.3 309.463 1108.38 308.774C1109.63 302.212 1110.85 295.65 1112.1 289.087C1113.85 279.973 1116.6 270.979 1120.85 262.675C1127.54 249.307 1138.11 237.964 1150.99 230.429Z" fill="#0D69B3" stroke="#0D69B3" stroke-width="0.0476715"/>
<path d="M1169.87 225.446C1179.31 222.773 1189.15 222.003 1198.92 222.003C1202.28 222.084 1205.72 221.841 1209.04 222.489C1210.22 222.651 1211.35 223.178 1212.53 223.097C1214.43 224.636 1215.57 226.905 1216.42 229.173C1218.28 234.561 1219.33 240.152 1220.22 245.783C1220.26 248.051 1220.67 250.603 1219.45 252.669C1218.32 254.695 1216.05 255.667 1213.91 256.275C1206.09 258.3 1197.9 256.396 1190.08 258.3C1183.64 259.677 1177.65 263.242 1173.56 268.387C1168.74 274.382 1166.18 281.835 1164.77 289.29C1163.67 295.934 1162.29 302.577 1161.2 309.261C1160.72 310.761 1160.43 312.381 1160.15 313.961C1167.8 314.083 1175.46 313.961 1183.12 314.042C1186.03 313.961 1188.95 314.123 1191.87 313.92C1193.49 317.647 1193.12 321.861 1192.6 325.79C1191.95 330.205 1190.9 334.58 1188.91 338.631C1187.25 342.074 1184.49 345.235 1180.73 346.45C1178.78 347.22 1176.68 347.058 1174.61 347.058C1167.8 347.058 1161 347.138 1154.19 347.058C1153.1 352.041 1152.37 357.145 1151.4 362.208C1149.62 372.052 1147.87 381.936 1146.09 391.821C1146.05 392.146 1146.01 392.834 1146.01 393.199V393.239C1128.31 393.239 1110.64 393.28 1092.94 393.239C1092.98 393.078 1093.02 392.793 1093.06 392.631C1093.1 392.429 1093.14 391.983 1093.19 391.741C1093.23 392.065 1093.27 392.673 1093.31 392.956C1094.4 393.078 1096.39 393.644 1096.67 392.065C1099.42 377.157 1101.98 362.168 1104.81 347.26C1103.72 347.017 1102.58 347.017 1101.45 347.22C1101.29 347.787 1101.13 348.353 1100.92 348.921L1101.17 347.098C1090.15 347.056 1079.09 347.098 1068.07 347.056C1065.4 346.977 1062.64 347.056 1059.97 346.733C1055.39 346.53 1050.77 346.692 1046.19 346.246C1040.52 346.246 1034.89 345.72 1029.22 345.72C1024.76 345.274 1020.27 345.436 1015.77 345.233C1012.86 344.87 1009.86 345.031 1006.9 344.91C1002.08 344.383 997.178 344.749 992.358 344.221C987.253 344.262 982.149 343.816 977.045 343.694C977.085 343.654 977.126 343.492 977.126 343.451C978.827 343.492 980.488 343.37 982.19 343.329C985.957 342.844 989.765 343.167 993.533 342.641C997.462 342.641 1001.35 342.114 1005.28 342.114C1008.76 341.628 1012.29 341.912 1015.77 341.426C1019.86 341.426 1023.87 340.899 1027.97 340.859C1031.33 340.413 1034.73 340.656 1038.09 340.211C1042.02 340.251 1045.91 339.643 1049.84 339.684C1053.69 339.237 1057.62 339.359 1061.47 338.954C1061.1 337.456 1060.82 335.957 1060.5 334.457C1060.21 333.525 1059.08 333.728 1058.35 333.607C1049.56 332.35 1040.81 331.095 1032.06 329.879C1032.62 329.433 1033.39 329.635 1034.04 329.556C1040.85 329.028 1047.61 328.42 1054.42 327.935C1055.96 327.854 1057.46 327.571 1059 327.53C1058.31 325.423 1057.9 323.115 1056.97 321.17C1042.43 318.942 1027.89 316.957 1013.38 314.567C1017.15 313.959 1020.96 313.675 1024.73 313.27C1040.93 313.27 1057.13 313.392 1073.34 313.311C1075.24 313.19 1077.1 313.635 1079.01 313.555C1087.92 313.635 1096.83 313.677 1105.75 313.716C1107.77 313.716 1109.84 313.838 1111.86 313.635C1113.12 305.533 1114.7 297.512 1116.08 289.451C1118.95 274.421 1124.91 259.676 1135.03 248.05C1140.71 241.244 1147.71 235.573 1155.49 231.279C1159.99 228.687 1164.93 226.945 1169.87 225.446Z" fill="#107BD4" stroke="#107BD4" stroke-width="0.0476715"/>
<path d="M1161.2 309.261C1168.9 309.303 1176.64 309.221 1184.37 309.303C1187.45 309.303 1190.61 311.004 1191.87 313.92C1188.95 314.123 1186.03 313.961 1183.12 314.042C1175.46 313.961 1167.8 314.083 1160.15 313.961C1160.43 312.381 1160.71 310.761 1161.2 309.261V309.261ZM1101.45 347.22C1102.58 347.017 1103.72 347.017 1104.81 347.26C1101.98 362.168 1099.42 377.157 1096.67 392.065C1096.39 393.644 1094.4 393.078 1093.31 392.956C1093.27 392.673 1093.23 392.065 1093.19 391.741C1095.74 377.481 1098.21 363.181 1100.92 348.922C1101.13 348.354 1101.29 347.787 1101.45 347.22Z" fill="#0D69B3" stroke="#0D69B3" stroke-width="0.0476715"/>
<path d="M1164.75 169.602C1164.42 168.994 1164.38 168.265 1164.38 167.576L1164.06 167.617C1163.57 165.834 1162.07 164.133 1160.13 164.052C1158.67 163.93 1156.85 163.971 1156 165.348C1154.38 167.536 1155.14 170.331 1155.06 172.802C1155.06 172.964 1155.1 173.248 1155.1 173.41C1155.1 175.071 1154.9 176.691 1154.62 178.311C1154.38 178.798 1154.25 179.324 1154.25 179.891C1153.57 183.699 1152.19 187.467 1150.33 190.91C1149.96 191.396 1149.68 191.923 1149.56 192.49C1148.34 194.596 1146.88 196.541 1145.38 198.485C1145.14 198.688 1144.94 198.931 1144.73 199.174C1143.68 200.47 1142.55 201.564 1141.37 202.698C1141.09 202.86 1140.89 203.063 1140.64 203.225C1139.27 204.562 1137.73 205.818 1136.06 206.83C1135.86 206.952 1135.66 207.114 1135.42 207.276C1125.05 214.122 1112.45 216.958 1100.17 217.08C1089.76 217.404 1079.27 215.176 1069.87 210.679C1069.71 210.598 1069.3 210.436 1069.14 210.355C1067.56 209.504 1065.94 208.775 1064.48 207.722C1064.16 207.56 1063.83 207.357 1063.47 207.195C1061.97 206.304 1060.55 205.332 1059.22 204.197C1058.77 203.792 1058.28 203.468 1057.8 203.104C1056.34 201.929 1054.84 200.673 1053.59 199.255C1053.26 198.891 1052.94 198.566 1052.61 198.242C1048.2 193.665 1044.76 188.074 1042.93 181.998C1041.19 177.177 1041.43 171.911 1041.23 166.847C1039.77 164.619 1036.69 163.363 1034.26 164.741C1033.25 165.47 1033.13 166.807 1032.36 167.738C1031.1 181.107 1036.82 194.434 1045.93 204.076C1045.93 204.4 1046.09 204.602 1046.38 204.724C1048 206.223 1049.58 207.762 1051.2 209.221C1051.48 209.504 1051.8 209.788 1052.17 210.031C1053.79 211.368 1055.53 212.583 1057.23 213.839C1057.56 214.082 1057.88 214.284 1058.25 214.487C1060.47 215.783 1062.58 217.323 1064.97 218.214C1065.13 218.335 1065.42 218.538 1065.58 218.619C1073.28 222.305 1081.58 224.817 1090.09 225.627C1091.02 225.627 1091.95 225.708 1092.88 225.911C1096.93 226.154 1100.98 226.032 1105.03 225.951C1117.55 224.857 1130.48 221.819 1140.93 214.446L1141.05 214.608C1141.37 214.325 1141.66 214.082 1141.98 213.839C1143.64 212.623 1145.26 211.327 1146.88 209.99C1147.25 209.707 1147.65 209.383 1148.02 209.018C1149.8 207.074 1151.87 205.291 1153.36 203.063L1153.61 203.185C1153.73 202.982 1153.93 202.577 1154.05 202.374C1155.43 200.511 1156.69 198.566 1157.9 196.622C1157.98 196.5 1158.18 196.298 1158.27 196.176L1158.1 196.014C1158.23 195.852 1158.51 195.528 1158.63 195.366C1160.86 190.829 1162.84 186.089 1163.53 181.066C1163.82 180.945 1163.98 180.702 1163.98 180.418C1164.02 178.798 1164.59 177.258 1164.43 175.638C1164.79 173.653 1164.83 171.627 1164.75 169.602V169.602Z" fill="white" stroke="white" stroke-width="0.0476715"/>
<path d="M1165.63 167.423C1159.28 167.804 1153.31 165.629 1147.54 163.642M1029.25 168.233C1032.53 169.264 1040.08 166.672 1042.21 169.044L1029.25 168.233ZM1031.14 178.226C1034.28 177.131 1041.03 174.538 1043.83 176.065L1031.14 178.226ZM1034.38 188.218C1035.9 188.711 1038.9 186.038 1040.39 185.255C1042.6 184.09 1044.88 183.197 1047.34 182.817L1034.38 188.218ZM1039.24 198.751C1040.81 196.521 1042.69 194.669 1044.95 193.086C1047.2 191.516 1053.35 187.323 1055.98 188.758L1039.24 198.751ZM1043.83 206.313C1045.61 204.897 1046.34 202.393 1048.21 200.905C1050.47 199.106 1053.93 198.783 1056.25 197.67L1043.83 206.313ZM1051.46 211.916C1051.99 208 1055.97 203.273 1059.76 203.612L1051.46 211.916ZM1057.33 217.385C1059.34 217.185 1061.04 212.696 1062.39 211.175C1064.42 208.896 1066.53 208.195 1069.22 207.393L1057.33 217.385ZM1068.95 222.247C1068.82 219.413 1071.75 211.287 1075.16 211.714L1068.95 222.247ZM1077.59 224.947C1077.45 221.598 1079.18 211.524 1083.26 211.174L1077.59 224.947ZM1086.5 230.349C1085.73 225.665 1085.78 218.889 1089.47 215.495L1086.5 230.349ZM1097.57 231.429C1097.16 227.525 1093.28 219.632 1097.57 216.575V231.429ZM1109.46 228.728C1107.6 226.581 1106.53 218.11 1107.3 215.765L1109.46 228.728ZM1120.8 226.838C1119.37 224.244 1117.6 221.808 1117.06 218.797C1116.74 216.997 1117.3 214.434 1117.02 213.064L1120.8 226.838ZM1130.25 222.787C1127.15 220.76 1126.29 213.311 1127.28 210.094L1130.25 222.787ZM1139.43 218.736C1137.23 214.008 1134.88 210.342 1134.84 204.962L1139.43 218.736ZM1148.35 210.094C1144.92 207.79 1140.55 203.602 1141.05 199.021L1148.35 210.094ZM1157.8 202.802C1152.6 201.649 1146.35 196.993 1143.22 192.809L1157.8 202.802ZM1162.12 193.89C1158.37 193.085 1145.96 188.246 1146.73 183.357L1162.12 193.89ZM1166.17 184.437C1160.94 182.52 1153.33 180.796 1149.16 177.146L1166.17 184.437ZM1168.87 175.795C1165.58 176.077 1160.86 174.482 1157.51 173.904C1153.79 173.263 1150.34 172.01 1146.73 171.204L1168.87 175.795Z" stroke="#D1D1D1" stroke-width="1.01429"/>
<path d="M352.611 186.901C358.482 186.015 365.238 185.462 370.222 189.116C373.323 191.442 374.431 195.65 374.209 199.417C374.431 205.619 371.551 212.265 366.014 215.477C361.14 218.135 355.271 218.356 349.843 217.802C346.188 217.36 342.533 215.367 340.65 212.044C336.44 202.408 341.646 188.784 352.611 186.901ZM176.948 193.879C177.28 190.556 180.271 187.566 183.704 187.677C209.29 187.677 234.764 187.787 260.239 187.677C263.008 187.455 265.999 188.673 267.327 191.11C269.21 194.433 267.549 198.088 267.327 201.522C266.553 206.173 266.773 212.376 261.347 214.147C242.739 214.701 224.131 214.147 205.523 214.369C203.751 226.109 202.09 237.738 200.317 249.368C200.317 249.811 200.429 250.809 200.429 251.251C214.052 251.14 227.675 251.251 241.298 251.14C245.064 250.919 249.051 254.132 248.719 258.118C248.387 262.217 247.501 266.204 246.947 270.302C246.503 273.071 244.289 275.618 241.409 276.172C226.235 276.504 210.839 275.84 195.666 276.504C193.229 293.229 190.349 309.952 187.801 326.678C187.47 330.001 184.811 332.88 181.488 332.99C175.175 333.102 168.861 333.102 162.549 332.99C158.451 333.102 155.128 328.559 156.235 324.683C162.993 281.046 169.971 237.519 176.948 193.879V193.879ZM289.478 187.897C295.239 187.455 301.108 187.787 306.868 187.677C310.413 187.455 313.957 190.224 314.288 193.879C314.288 196.758 313.513 199.638 313.181 202.518C308.529 232.202 303.767 261.885 299.114 291.569C298.45 296.331 297.232 301.426 298.672 306.299C300.333 311.172 307.753 309.068 309.526 314.162C310.633 318.261 309.414 322.58 309.082 326.789C308.75 332.327 302.437 333.545 298.118 334.765C288.704 336.536 277.295 335.207 270.538 327.453C265.665 321.806 265.332 313.83 266.33 306.742C272.2 269.085 278.07 231.427 284.052 193.658C284.384 190.888 286.599 188.341 289.478 187.897V187.897ZM509.335 193.879C509.666 190.556 512.657 187.677 515.98 187.677H532.816C537.024 187.566 540.459 192.107 539.461 196.094C535.585 220.683 531.598 245.271 527.722 269.858C533.591 268.973 540.238 267.865 544.336 263.103C551.202 255.349 556.851 246.379 561.06 236.965C562.499 233.309 563.275 227.993 568.038 227.328C574.351 227.107 580.774 227.217 587.088 227.328C591.408 227.217 594.619 232.091 593.18 236.078C591.518 241.949 588.75 247.375 585.87 252.581C579.446 262.993 572.358 273.293 563.053 281.489C567.151 293.783 572.357 305.745 576.898 317.818C578.227 321.805 581.44 326.457 578.449 330.334C575.015 334.986 568.591 332.659 563.829 333.213C558.844 332.659 551.645 335.206 548.876 329.558C543.67 317.485 539.351 305.081 534.034 293.008C530.933 293.118 527.721 293.23 524.619 292.897C524.399 293.341 523.955 294.226 523.733 294.67C522.072 305.745 520.3 316.821 518.527 327.896C517.863 330.555 515.758 332.881 512.879 333.103C507.009 333.324 501.028 333.213 495.047 333.213C492.499 333.213 490.174 331.552 489.066 329.337C487.958 327.12 488.622 324.574 488.956 322.137C495.822 279.384 502.578 236.631 509.335 193.879V193.879ZM817.133 205.952C817.909 202.85 820.899 200.746 824.001 200.856C828.432 200.968 832.972 200.746 837.513 200.968C841.168 201.078 844.048 204.733 843.604 208.277C842.94 214.591 841.389 220.904 840.946 227.216C845.266 227.216 849.696 227.106 854.016 227.216C857.892 227.216 861.105 231.204 860.44 234.969C859.886 238.404 859.11 241.727 858.556 245.159C858.003 248.04 855.567 250.365 852.798 250.808C847.481 251.14 842.276 250.587 837.07 251.14C834.855 265.981 832.418 280.823 830.092 295.666C829.759 299.099 829.538 302.975 831.532 305.966C834.523 309.621 839.727 308.291 843.937 308.735C847.26 309.731 849.364 313.387 848.81 316.711C848.256 320.475 848.145 324.242 847.26 327.896C845.931 331.994 841.168 332.77 837.512 333.766C827.433 336.425 815.804 336.425 806.833 330.554C798.527 324.905 797.197 313.94 798.083 304.636C800.408 286.693 804.064 268.862 806.057 250.808C802.956 250.918 799.19 251.362 796.865 248.592C794.207 245.824 795.536 241.725 795.979 238.291C796.644 234.636 796.532 229.874 800.52 227.88C803.731 226.661 807.387 227.548 810.821 227.105C812.925 220.017 814.918 212.929 817.133 205.952V205.952ZM754.555 241.837C761.533 234.859 769.95 229.1 779.586 226.221C783.794 224.337 789.222 227.882 789.112 232.534C788.336 238.626 786.896 244.606 785.899 250.587C785.455 253.578 782.908 256.125 779.918 256.457C769.063 258.339 759.649 264.873 752.118 272.627C750.235 274.954 747.466 277.169 747.134 280.381C744.808 295.887 742.371 311.393 739.935 326.899C739.603 330.221 736.722 333.435 733.289 333.213H716.453C712.577 333.435 709.144 329.559 709.586 325.681C714.46 295.001 719.334 264.432 724.096 233.751C724.318 230.65 726.533 227.66 729.744 227.327C733.843 227.106 737.94 227.216 742.15 227.216C745.472 227.216 748.573 230.207 748.573 233.641C748.573 238.403 748.131 243.276 748.02 248.15C750.678 246.489 752.34 243.831 754.555 241.837V241.837ZM340.538 227.771C346.519 226.553 352.722 227.55 358.703 227.217C362.137 226.774 365.792 228.989 366.345 232.423C366.789 235.524 365.901 238.515 365.569 241.506C361.029 269.971 356.487 298.435 352.057 326.9C351.724 330.114 349.067 333.325 345.633 333.213C339.653 333.213 333.671 333.325 327.58 333.104C323.814 332.66 321.045 328.341 322.042 324.685C326.805 295.114 331.346 265.651 336.109 236.078C336.33 232.866 337.216 229.1 340.538 227.771V227.771ZM698.953 229.212C682.45 226.109 665.616 223.894 648.89 225.556C633.938 227.439 618.875 234.195 609.683 246.489C596.945 262.66 592.625 284.369 595.504 304.528C597.056 314.163 601.264 323.91 609.128 329.891C616.438 335.54 626.296 336.314 635.157 334.875C647.561 332.438 658.083 324.465 666.723 315.603C667.165 319.369 666.279 323.135 666.501 326.79C666.723 330.222 669.824 333.435 673.257 333.213H684.555C687.878 333.213 690.647 330.113 690.869 326.9C695.631 296.884 700.394 266.979 705.046 237.075C705.709 233.309 702.72 229.654 698.953 229.212V229.212ZM667.831 281.378C663.4 289.685 657.197 297.217 650.219 303.64C646.233 306.963 641.137 310.397 635.711 309.29C630.394 308.182 627.847 302.644 626.629 297.881C623.86 285.477 626.407 271.963 633.384 261.221C636.486 256.235 641.47 252.47 647.229 250.919C655.314 248.925 663.844 249.922 671.708 252.137L672.15 252.581C671.154 262.217 669.271 271.742 667.831 281.378V281.378ZM481.535 264.765C481.423 253.689 478.433 242.059 470.681 233.752C465.364 227.882 457.389 224.892 449.636 225.001C436.788 224.559 424.715 230.873 415.301 239.29C413.196 240.952 411.757 243.388 409.431 244.717C409.431 241.061 409.763 237.407 409.652 233.641C409.763 230.207 406.551 227.217 403.228 227.217H391.93C388.387 227.217 385.507 230.319 385.285 233.751C378.307 278.055 371.22 322.359 364.241 366.662C363.245 370.76 366.79 374.969 370.998 374.858C377.2 374.748 383.514 375.302 389.605 374.414C394.479 373.085 394.368 367.437 395.144 363.339C396.915 353.592 398.134 343.845 399.242 333.987C421.061 338.196 446.425 335.317 462.706 318.814C475.997 304.305 482.199 284.258 481.535 264.765V264.765ZM450.522 275.951C449.858 286.141 446.203 296.442 439.115 303.861C429.922 312.612 415.965 311.393 404.668 308.404C404.448 308.071 404.114 307.406 404.004 307.075C405.776 297.439 406.662 287.691 408.878 278.166C415.08 267.977 422.611 257.675 433.355 252.028C437.342 250.145 442.769 250.588 445.649 254.243C450.522 260.335 450.966 268.531 450.522 275.951V275.951Z" fill="#107BD4" stroke="#107BD4" stroke-width="0.0512215"/>
</g>
</g>
<defs>
<linearGradient id="paint0_linear" x1="1098.47" y1="155.445" x2="1098.47" y2="393.549" gradientUnits="userSpaceOnUse">
<stop stop-color="#F7E830"/>
<stop offset="1" stop-color="#FDCB06"/>
</linearGradient>
<radialGradient id="paint1_radial" cx="0" cy="0" r="1" gradientUnits="userSpaceOnUse" gradientTransform="translate(1097.23 264.044) scale(193.67 193.67)">
<stop offset="0.596" stop-color="#F29405"/>
<stop offset="0.736" stop-color="#F7D01E"/>
<stop offset="1" stop-color="#FDCB06"/>
</radialGradient>
<linearGradient id="paint2_linear" x1="1164.73" y1="164.038" x2="1164.79" y2="175.313" gradientUnits="userSpaceOnUse">
<stop stop-color="#FADA1C"/>
<stop offset="1" stop-color="#FDCB06"/>
</linearGradient>
<linearGradient id="paint3_linear" x1="1032.1" y1="163.498" x2="1032.03" y2="174.773" gradientUnits="userSpaceOnUse">
<stop stop-color="#FADA1C"/>
<stop offset="1" stop-color="#FDCB06"/>
</linearGradient>
<clipPath id="clip0">
<rect width="1400" height="500" fill="white"/>
</clipPath>
<clipPath id="clip1">
<rect width="1087" height="286.567" fill="white" transform="translate(156 107)"/>
</clipPath>
</defs>
</svg>
