<svg width="1400" height="500" viewBox="0 0 1400 500" fill="none" xmlns="http://www.w3.org/2000/svg">
<g clip-path="url(#clip0)">
<path d="M307.631 250.118C307.631 227.728 325.881 209.631 348.271 209.631C370.661 209.631 388.911 227.728 388.911 250.118C388.911 272.508 370.661 290.605 348.271 290.605C325.881 290.605 307.631 272.508 307.631 250.118Z" fill="#00AA13"/>
<path d="M348.271 142.307C288.461 142.307 240 190.615 240 250.118C240 294.899 267.145 333.085 306.404 349.648C316.679 353.942 328.641 349.188 332.935 338.759C333.396 337.533 333.856 336.306 334.162 334.925C336.003 325.417 330.942 315.909 322.047 312.228C297.816 302.107 280.64 278.183 280.64 250.118C280.64 212.852 311.005 182.64 348.271 182.64C385.538 182.64 415.903 212.852 415.903 250.118C415.903 278.183 398.726 302.107 374.342 312.228C364.067 316.522 359.16 328.331 363.454 338.606C366.521 346.121 374.036 351.028 382.164 351.028C384.924 351.028 387.531 350.415 389.985 349.495C429.398 332.932 456.389 294.745 456.389 249.965C456.543 190.615 408.081 142.307 348.271 142.307Z" fill="#00AA13"/>
<path d="M770.775 238.156C770.775 218.679 757.28 204.11 736.423 204.11C715.413 204.11 702.071 218.679 702.071 238.156C702.071 257.633 715.566 272.202 736.423 272.202C757.28 272.202 770.775 257.633 770.775 238.156ZM668.332 238.156C668.332 202.27 696.856 174.665 736.423 174.665C776.296 174.665 804.514 202.423 804.514 238.156C804.514 273.889 776.296 301.647 736.423 301.647C696.703 301.647 668.332 274.042 668.332 238.156ZM792.859 327.718H811.109C820.924 327.718 824.298 324.037 824.298 315.449V174.665H858.037V315.756C858.037 345.507 845.921 358.236 813.869 358.236H792.859V327.718ZM614.349 244.75C614.349 259.626 599.167 271.435 579.997 271.435C558.22 271.435 544.724 258.706 544.724 237.389C544.724 217.759 559.14 204.264 581.377 204.264C599.013 204.264 614.349 216.532 614.349 230.488C614.349 230.641 614.349 244.75 614.349 244.75ZM615.73 174.665V188.774H615.269C606.528 179.573 592.112 174.665 574.936 174.665C537.977 174.665 510.832 202.117 510.832 237.389C510.832 274.195 538.743 301.033 576.163 301.033C592.879 301.033 606.835 295.819 615.423 286.464H615.883V298.733C615.883 315.142 601.621 327.258 582.911 327.258C563.894 327.258 553.006 321.89 543.344 312.842L521.414 333.852C536.136 349.341 558.22 358.236 583.524 358.236C622.017 358.236 648.395 332.472 648.395 298.273V174.665C648.242 174.665 615.73 174.665 615.73 174.665ZM944.224 201.963C962.167 201.963 974.743 211.318 976.276 225.274H911.559C913.399 211.165 925.975 201.963 944.224 201.963ZM947.598 274.502C927.355 274.502 911.559 261.467 911.099 248.891H1009.1V239.383C1009.1 203.344 984.098 174.665 943.457 174.665C905.271 174.665 877.82 201.503 877.82 238.463C877.82 276.496 906.651 301.8 948.978 301.8C974.896 301.8 993.606 289.378 1003.27 277.569L980.417 261.62C970.449 270.975 961.247 274.502 947.598 274.502ZM1028.88 142H1061.39L1061.54 225.274H1062L1116.45 174.359H1160L1103.56 227.574L1159.85 301.647H1121.05L1082.4 248.124H1081.94L1061.39 267.448V301.647H1028.88V142Z" fill="black"/>
</g>
<defs>
<clipPath id="clip0">
<rect width="1400" height="500" fill="white"/>
</clipPath>
</defs>
</svg>
