<svg width="1400" height="500" viewBox="0 0 1400 500" fill="none" xmlns="http://www.w3.org/2000/svg">
<g clip-path="url(#clip0)">
<path d="M628.233 270.477C628.233 315.898 592.7 349.369 549.092 349.369C505.485 349.369 469.951 315.898 469.951 270.477C469.951 224.735 505.485 191.584 549.092 191.584C592.7 191.584 628.233 224.735 628.233 270.477ZM593.589 270.477C593.589 242.092 572.995 222.672 549.092 222.672C525.19 222.672 504.595 242.092 504.595 270.477C504.595 298.576 525.19 318.281 549.092 318.281C572.995 318.281 593.589 298.541 593.589 270.477Z" fill="#EA4335"/>
<path d="M798.965 270.477C798.965 315.898 763.431 349.369 719.824 349.369C676.216 349.369 640.683 315.898 640.683 270.477C640.683 224.77 676.216 191.584 719.824 191.584C763.431 191.584 798.965 224.735 798.965 270.477ZM764.321 270.477C764.321 242.092 743.726 222.672 719.824 222.672C695.921 222.672 675.327 242.092 675.327 270.477C675.327 298.576 695.921 318.281 719.824 318.281C743.726 318.281 764.321 298.541 764.321 270.477Z" fill="#FBBC05"/>
<path d="M962.582 196.351V337.987C962.582 396.249 928.223 420.044 887.603 420.044C849.366 420.044 826.353 394.47 817.674 373.556L847.837 361C853.208 373.84 866.368 388.993 887.567 388.993C913.568 388.993 929.681 372.951 929.681 342.753V331.406H928.472C920.718 340.974 905.779 349.333 886.927 349.333C847.481 349.333 811.343 314.973 811.343 270.761C811.343 226.229 847.481 191.584 886.927 191.584C905.743 191.584 920.682 199.943 928.472 209.227H929.681V196.386H962.582V196.351ZM932.135 270.761C932.135 242.982 913.604 222.672 890.022 222.672C866.119 222.672 846.094 242.982 846.094 270.761C846.094 298.256 866.119 318.281 890.022 318.281C913.604 318.281 932.135 298.256 932.135 270.761Z" fill="#4285F4"/>
<path d="M1016.82 113.333V344.531H983.034V113.333H1016.82Z" fill="#34A853"/>
<path d="M1148.5 296.442L1175.39 314.369C1166.71 327.209 1145.8 349.333 1109.66 349.333C1064.84 349.333 1031.37 314.689 1031.37 270.441C1031.37 223.525 1065.13 191.549 1105.78 191.549C1146.72 191.549 1166.75 224.13 1173.29 241.737L1176.89 250.7L1071.42 294.379C1079.5 310.207 1092.05 318.281 1109.66 318.281C1127.3 318.281 1139.54 309.602 1148.5 296.442ZM1065.73 268.058L1136.23 238.785C1132.35 228.932 1120.69 222.067 1106.96 222.067C1089.35 222.067 1064.84 237.611 1065.73 268.058V268.058Z" fill="#EA4335"/>
<path d="M342.045 249.953V216.483H454.835C455.938 222.316 456.507 229.216 456.507 236.686C456.507 261.798 449.642 292.849 427.518 314.973C405.999 337.382 378.504 349.333 342.081 349.333C274.571 349.333 217.803 294.343 217.803 226.833C217.803 159.323 274.571 104.333 342.081 104.333C379.428 104.333 406.034 118.988 426.024 138.089L402.406 161.706C388.072 148.261 368.651 137.804 342.045 137.804C292.747 137.804 254.19 177.535 254.19 226.833C254.19 276.132 292.747 315.863 342.045 315.863C374.022 315.863 392.233 303.022 403.9 291.356C413.361 281.894 419.586 268.378 422.04 249.918L342.045 249.953V249.953Z" fill="#4285F4"/>
</g>
<defs>
<clipPath id="clip0">
<rect width="1400" height="500" fill="white"/>
</clipPath>
</defs>
</svg>
