<svg width="1400" height="500" viewBox="0 0 1400 500" fill="none" xmlns="http://www.w3.org/2000/svg">
<g clip-path="url(#clip0)">
<path fill-rule="evenodd" clip-rule="evenodd" d="M1149.99 182.167V209.611C1135.77 204.244 1123.12 201.53 1112.04 201.53C1105.47 201.53 1100.25 202.746 1096.32 205.095C1092.39 207.464 1090.38 210.382 1090.38 213.825C1090.38 218.402 1094.82 222.473 1103.75 226.119L1129.56 238.677C1150.42 248.622 1160.77 261.828 1160.77 278.416C1160.77 292.209 1155.28 303.207 1144.2 311.35C1133.2 319.573 1118.4 323.643 1099.96 323.643C1091.46 323.643 1083.82 323.279 1077.04 322.51C1070.25 321.782 1062.45 320.282 1053.81 318.135V289.415C1069.66 294.782 1084.11 297.497 1097.11 297.497C1112.62 297.497 1120.34 293 1120.34 283.925C1120.34 279.409 1117.18 275.763 1110.76 272.906L1082.1 260.693C1071.53 255.913 1063.67 250.12 1058.52 243.254C1053.46 236.328 1050.89 228.388 1050.89 219.313C1050.89 206.615 1056.24 196.386 1066.81 188.608C1077.46 180.891 1091.6 177.022 1109.18 177.022C1114.89 177.022 1121.48 177.529 1128.77 178.46C1136.12 179.452 1143.19 180.668 1149.99 182.167H1149.99ZM338.275 182.167V209.611C324.055 204.244 311.417 201.53 300.338 201.53C293.755 201.53 288.55 202.746 284.621 205.095C280.691 207.464 278.686 210.382 278.686 213.825C278.686 218.402 283.183 222.473 292.115 226.119L317.919 238.677C338.699 248.622 349.07 261.828 349.07 278.416C349.07 292.209 343.562 303.207 332.563 311.35C321.484 319.573 306.759 323.643 288.266 323.643C279.76 323.643 272.103 323.279 265.318 322.51C258.533 321.782 250.816 320.282 242.107 318.135V289.415C258.027 294.782 272.469 297.497 285.391 297.497C300.905 297.497 308.623 293 308.623 283.925C308.623 279.409 305.483 275.763 299.122 272.906L270.462 260.693C259.809 255.913 251.95 250.12 246.887 243.254C241.742 236.328 239.23 228.389 239.23 219.313C239.23 206.615 244.538 196.386 255.17 188.608C265.744 180.891 279.902 177.022 297.483 177.022C303.255 177.022 309.757 177.529 317.13 178.46C324.421 179.452 331.489 180.668 338.275 182.167V182.167ZM367.846 321.072V179.593H409.875V321.071L367.846 321.072ZM442.384 179.594H545.276V205.743H482.83V237.117H536.991V260.693H482.83V293.627H546.551V321.072H442.384V179.594ZM621.088 179.594L656.108 266.202L692.748 179.594H741.481V321.072H702.246V227.759L661.537 322.368H637.312L598.16 227.759V321.072H569.784V179.593L621.088 179.594ZM773.931 179.594H876.823V205.743H814.719V237.117H868.88V260.693H814.719V293.627H878.099V321.072H773.931V179.594ZM929.689 230.332V321.072H901.33V179.593H947.208L995.94 268.774V179.594H1024.29V321.072H979.715L929.689 230.332Z" fill="#009999"/>
</g>
<defs>
<clipPath id="clip0">
<rect width="1400" height="500" fill="white"/>
</clipPath>
</defs>
</svg>
